<svg width="212" height="56" fill="none" xmlns="http://www.w3.org/2000/svg"><path d="M170.518 32.97l-7.915-10.989c-1.201.14-2.261.21-3.251.21h-9.469v10.78h-2.403V.07h11.872c4.17 0 7.42.98 9.823 2.94 2.403 1.96 3.533 4.69 3.533 8.12 0 2.59-.706 4.76-2.049 6.58-1.343 1.75-3.251 3.01-5.795 3.71l8.268 11.48h-2.614v.07zm-11.166-12.879c3.534 0 6.219-.77 8.127-2.31 1.908-1.54 2.827-3.78 2.827-6.58 0-2.8-.919-5.04-2.827-6.58s-4.593-2.31-8.127-2.31h-9.469v17.85h9.469v-.07zM32.012.071l-14.77 32.9H14.77L0 .07h2.685l13.427 29.82L29.468.07h2.544z" fill="#1E4FC6"/><path d="M66.356 17.291h17.666v-2.1h-20.14v17.78h22.896V30.8H66.285V17.29h.07zM63.953.071v2.17h22.896V.071H63.953zm125.151 0v2.17H212V.071h-22.896zm2.403 30.73V17.29h17.666v-2.1h-20.14v17.78H212V30.8h-20.493zM45.51.07L32.084 29.82l-5.442-11.97-1.272 2.94 5.441 12.11h2.403L47.984 0H45.51v.07zM7.279 50.68c0 .7-.283 1.26-.848 1.68-.566.42-1.343.56-2.474.56H0v-8.26h3.887c.989 0 1.766.21 2.332.56.565.35.848.91.848 1.54 0 .42-.142.84-.354 1.12-.212.28-.565.56-.989.7.99.42 1.555 1.05 1.555 2.1zM1.484 48.3h2.261c.566 0 .99-.07 1.343-.28.283-.21.424-.49.424-.91 0-.77-.565-1.19-1.767-1.19H1.484v2.38zM5.3 51.52c.283-.21.495-.49.495-.91 0-.42-.142-.77-.424-.98-.283-.21-.707-.28-1.343-.28H1.555v2.45h2.402c.566 0 1.06-.07 1.343-.28zm4.028-6.79h1.485v6.02l5.087-6.02h1.343v8.26H15.76v-6.02l-5.088 6.02H9.258v-8.26h.07zm16.82.49c.636.35 1.13.84 1.484 1.47.353.63.565 1.33.565 2.17 0 .84-.212 1.54-.565 2.17a3.73 3.73 0 01-1.484 1.47 4.42 4.42 0 01-2.191.56c-.565 0-1.13-.14-1.625-.35-.495-.21-.919-.56-1.272-.98V56h-1.484V44.73h1.413v1.33c.353-.42.777-.77 1.272-1.05.495-.21 1.06-.35 1.696-.35.777 0 1.555.21 2.19.56zm-.848 6.16c.424-.21.777-.56.989-1.05.212-.42.353-.98.353-1.54s-.141-1.05-.353-1.54c-.212-.42-.565-.77-.99-1.05a3.241 3.241 0 00-1.413-.35c-.494 0-.989.14-1.413.35-.424.21-.777.56-.99 1.05-.211.42-.353.91-.353 1.54 0 .56.142 1.05.354 1.54.212.42.565.77.989 1.05.424.28.919.35 1.413.35.495 0 .99-.07 1.414-.35zm10.88-5.32h-3.038v6.93h-1.484v-6.93h-3.039v-1.33h7.562v1.33zm10.248-1.33l-4.027 9.03c-.354.84-.778 1.4-1.273 1.75-.494.35-1.06.49-1.696.49a3.62 3.62 0 01-1.2-.21c-.354-.14-.707-.35-.92-.56l.637-1.12c.424.42.918.63 1.483.63.354 0 .636-.07.92-.28.211-.21.494-.49.635-.98l.283-.56-3.675-8.19h1.555l2.897 6.58 2.898-6.58h1.483zm7.209.77c.636.56.919 1.4.919 2.52v4.97h-1.414v-1.12c-.282.35-.636.7-1.06.91-.494.21-.989.28-1.625.28-.919 0-1.696-.21-2.261-.7-.566-.42-.848-1.05-.848-1.75s.282-1.33.777-1.75c.565-.42 1.413-.63 2.544-.63h2.403v-.28c0-.63-.212-1.12-.566-1.47-.353-.35-.918-.49-1.696-.49-.494 0-.989.07-1.413.21a3.26 3.26 0 00-1.201.63l-.636-1.12c.424-.35.918-.63 1.554-.77s1.202-.28 1.908-.28c1.131 0 1.979.28 2.615.84zm-1.484 6.02c.424-.28.707-.63.919-1.05v-1.12H50.74c-1.272 0-1.908.42-1.908 1.26 0 .42.141.77.494.98.354.21.778.35 1.343.35s1.06-.14 1.484-.42zm11.941-6.79v8.26H62.61v-6.93h-3.604l-.07 1.82c-.072 1.12-.142 2.03-.284 2.8-.14.77-.353 1.33-.706 1.75-.354.42-.778.7-1.414.7-.282 0-.565-.07-.918-.14l.07-1.26c.142 0 .283.07.354.07.424 0 .706-.21.918-.56.212-.35.354-.77.424-1.26.071-.49.142-1.19.142-2.1l.141-3.01h6.43v-.14zm8.833 3.5c.566.49.848 1.12.848 1.96 0 .91-.282 1.54-.919 2.03-.635.49-1.483.7-2.543.7h-3.605v-8.26h1.484v2.8h2.333c1.06.07 1.837.35 2.402.77zm-1.201 3.22c.353-.28.495-.7.495-1.26s-.142-.91-.495-1.19c-.353-.28-.848-.35-1.555-.42h-1.979v3.22h1.98c.635.07 1.2-.07 1.554-.35zm3.958-6.72h1.484v3.5h4.735v-3.5h1.484v8.26h-1.484v-3.43h-4.735v3.43h-1.484v-8.26zm16.253.77c.636.56.919 1.4.919 2.52v4.97h-1.414v-1.12c-.282.35-.636.7-1.06.91-.495.21-.99.28-1.625.28-.919 0-1.696-.21-2.261-.7-.566-.42-.849-1.05-.849-1.75s.283-1.33.778-1.75c.494-.42 1.413-.63 2.544-.63h2.402v-.28c0-.63-.212-1.12-.565-1.47-.353-.35-.919-.49-1.696-.49-.495 0-.99.07-1.413.21a3.26 3.26 0 00-1.201.63l-.636-1.12a3.6 3.6 0 011.554-.77c.566-.21 1.201-.28 1.908-.28 1.13 0 2.05.28 2.615.84zm-1.484 6.02c.424-.28.706-.63.918-1.05v-1.12H89.04c-1.273 0-1.909.42-1.909 1.26 0 .42.142.77.495.98.353.21.777.35 1.343.35.565 0 1.06-.14 1.484-.42zm11.802-6.79v8.26h-1.343V50.4h-2.544l-1.837 2.59h-1.626l2.05-2.8c-.636-.21-1.131-.49-1.414-.91-.353-.42-.494-.98-.494-1.61 0-.91.353-1.68.989-2.17s1.555-.77 2.685-.77h3.534zm-5.23 4.13c.354.28.848.42 1.555.42h2.332v-3.22h-2.261c-1.414 0-2.191.56-2.191 1.61 0 .56.212.98.565 1.19zm17.95-3.36c.636.56.919 1.4.919 2.52v4.97h-1.413v-1.12c-.283.35-.636.7-1.06.91-.495.21-.99.28-1.626.28-.918 0-1.696-.21-2.261-.7-.565-.42-.848-1.05-.848-1.75s.283-1.33.777-1.75c.495-.42 1.414-.63 2.544-.63h2.403v-.28c0-.63-.212-1.12-.565-1.47-.354-.35-.919-.49-1.696-.49a4.6 4.6 0 00-1.414.21c-.494.14-.848.35-1.201.63l-.636-1.12c.424-.35.919-.63 1.555-.77.565-.21 1.201-.28 1.908-.28 1.13 0 2.049.28 2.614.84zm-1.484 6.02c.424-.28.707-.63.919-1.05v-1.12h-2.332c-1.272 0-1.908.42-1.908 1.26 0 .42.141.77.495.98.353.21.777.35 1.342.35.566 0 1.06-.14 1.484-.42zm11.377-6.3c.636.35 1.131.84 1.484 1.47.354.63.566 1.33.566 2.17 0 .84-.212 1.54-.566 2.17a3.728 3.728 0 01-1.484 1.47c-.636.35-1.342.56-2.19.56-.566 0-1.131-.14-1.626-.35-.494-.21-.918-.56-1.272-.98V56h-1.484V44.73h1.414v1.33c.353-.42.777-.77 1.272-1.05.494-.21 1.06-.35 1.696-.35.848 0 1.554.21 2.19.56zm-.848 6.16c.424-.21.778-.56.99-1.05.212-.42.353-.98.353-1.54s-.141-1.05-.353-1.54c-.212-.42-.566-.77-.99-1.05a3.239 3.239 0 00-1.413-.35c-.495 0-.989.14-1.413.35-.424.21-.778.56-.99 1.05-.212.42-.353.91-.353 1.54 0 .56.141 1.05.353 1.54.212.42.566.77.99 1.05.424.28.918.35 1.413.35s.989-.07 1.413-.35zm10.246 1.61l-2.403-3.15-2.402 3.15h-1.696l3.25-4.2-3.109-3.99h1.696l2.261 2.94 2.262-2.94h1.625l-3.109 3.99 3.321 4.2h-1.696zm3.604-8.26h1.484v6.02l5.088-6.02h1.343v8.26h-1.484v-6.02l-5.088 6.02H137.8v-8.26h.07zm17.384 1.33h-3.038v6.93h-1.484v-6.93h-3.039v-1.33h7.561v1.33zm8.976 3.29h-6.713c.071.7.424 1.33.989 1.75.565.42 1.202.63 2.05.63.989 0 1.766-.35 2.402-.98l.848.98c-.353.42-.848.77-1.413.98-.566.21-1.201.35-1.837.35-.848 0-1.626-.21-2.332-.56a3.5 3.5 0 01-1.555-1.47 4.517 4.517 0 01-.565-2.17c0-.77.212-1.54.565-2.17.353-.63.848-1.12 1.484-1.47a4.347 4.347 0 012.12-.56c.777 0 1.484.21 2.12.56.636.35 1.131.84 1.484 1.47s.494 1.4.494 2.17c-.07.14-.07.28-.141.49zm-5.865-2.8c-.495.42-.777.98-.848 1.68h5.3c-.071-.7-.353-1.26-.848-1.68-.495-.42-1.06-.63-1.838-.63-.706 0-1.272.21-1.766.63zm11.164 2.94h-1.696v3.5h-1.484v-8.26h1.484v3.5h1.767l2.685-3.5h1.625l-3.18 3.99 3.392 4.27h-1.766l-2.827-3.5zm13.427-3.43h-3.039v6.93h-1.484v-6.93h-3.038v-1.33h7.561v1.33zm10.246-1.33l-4.028 9.03c-.353.84-.777 1.4-1.272 1.75-.495.35-1.06.49-1.696.49-.424 0-.777-.07-1.201-.21-.354-.14-.707-.35-.919-.56l.636-1.12c.424.42.919.63 1.484.63.353 0 .636-.07.919-.28.212-.21.494-.49.636-.98l.282-.56-3.674-8.19h1.554l2.898 6.58 2.897-6.58h1.484zm8.128.49c.636.35 1.13.84 1.484 1.47.353.63.565 1.33.565 2.17 0 .84-.212 1.54-.565 2.17a3.734 3.734 0 01-1.484 1.47 4.42 4.42 0 01-2.191.56c-.565 0-1.131-.14-1.625-.35-.495-.21-.919-.56-1.272-.98V56h-1.484V44.73h1.413v1.33c.353-.42.778-.77 1.272-1.05.495-.21 1.06-.35 1.696-.35.848 0 1.555.21 2.191.56zm-.848 6.16c.424-.21.777-.56.989-1.05.212-.42.353-.98.353-1.54s-.141-1.05-.353-1.54c-.212-.42-.565-.77-.989-1.05a3.242 3.242 0 00-1.413-.35c-.495 0-.99.14-1.414.35-.424.21-.777.56-.989 1.05-.212.42-.354.91-.354 1.54 0 .56.142 1.05.354 1.54.212.42.565.77.989 1.05.424.28.919.35 1.414.35.494 0 .989-.07 1.413-.35zm10.598-5.88c.636.56.919 1.4.919 2.52v4.97h-1.413v-1.12c-.283.35-.636.7-1.06.91-.495.21-.99.28-1.626.28-.918 0-1.696-.21-2.261-.7-.565-.42-.848-1.05-.848-1.75s.283-1.33.777-1.75c.495-.42 1.414-.63 2.544-.63h2.403v-.28c0-.63-.212-1.12-.565-1.47-.354-.35-.919-.49-1.696-.49a4.6 4.6 0 00-1.414.21c-.494.14-.848.35-1.201.63l-.636-1.12c.424-.35.919-.63 1.555-.77.565-.21 1.201-.28 1.908-.28 1.13 0 1.978.28 2.614.84zm-1.484 6.02c.424-.28.707-.63.919-1.05v-1.12h-2.332c-1.272 0-1.908.42-1.908 1.26 0 .42.141.77.495.98.353.21.777.35 1.342.35.566 0 1.06-.14 1.484-.42zm-78.579-18.55h2.614L118.367.072h-2.473l-15.264 32.9h2.615l4.946-10.78h17.879l4.947 10.78zm-21.836-12.879l7.914-17.36 7.986 17.36h-15.9z" fill="#000032"/></svg>