<svg width="835" height="682" fill="none" xmlns="http://www.w3.org/2000/svg"><g opacity=".2" clip-path="url(#clip0)"><path d="M822.694 626.01c.232 0 .464.117.697.117l.116-.931c-.349 0-.697-.117-1.045-.117a1623.434 1623.434 0 00-20.666-77.524c.232 0 .464 0 .812.117l.117-1.048c-.349 0-.813-.116-1.161-.116-6.618-22.699-13.12-43.185-19.041-61.926-18.46-58.55-31.812-100.921-30.419-143.524-.58-18.391 1.51-36.667 5.573-56.222h.232v-1.048c5.457-25.608 14.165-53.312 24.614-86.254 5.921-18.74 12.423-39.227 19.041-62.042h.116v-.349c5.34-18.159 10.797-37.83 16.138-59.132.58-.117 1.161-.117 1.741-.233l-.116-.931c-.464.116-.929.116-1.393.232A1674.44 1674.44 0 00834.885.815l.116-.699-.697.117c-80.806 16.762-148.261 40.275-207.937 61.11-46.673 16.297-89.398 31.197-130.382 39.81h-.464v.117c-26.587 5.587-52.478 8.497-78.02 7.45-65.249 2.677-131.775-20.487-208.866-47.376C149.075 40.508 81.504 16.994.697.116L.001 0l.116.698c5.34 26.773 11.03 51.334 16.718 74.032h-.348l-.116.931c.232 0 .464.117.697.117 5.34 21.069 10.797 40.624 16.021 58.666-.232 0-.58 0-.812-.116l-.116 1.048c.348 0 .812.116 1.16.116a1882.972 1882.972 0 0014.281 46.794h-1.51v1.047c.581 0 1.162 0 1.742.117 1.51 4.772 3.019 9.545 4.412 14.201 2.438 7.799 4.876 15.365 7.082 22.582h-.464v1.047h.697c14.512 46.794 24.265 83.228 22.988 119.895.232 6.751.116 13.502-.349 20.37h-.464v1.048h.464c-1.045 14.201-3.599 28.518-7.082 43.883h-.232v1.048c-5.457 23.164-13.352 48.19-22.524 77.291-1.393 4.307-2.786 8.73-4.18 13.153h-1.16v1.048h.812c-2.322 7.333-4.644 14.899-7.082 22.815-.58 0-1.045.116-1.625.116v1.048c.464 0 .812 0 1.277-.117a1555.673 1555.673 0 00-14.513 49.704c-.58 0-1.16.116-1.741.233l.116 1.047c.464 0 .929-.116 1.393-.116a1827.804 1827.804 0 00-6.618 24.794c-.58.116-1.16.116-1.857.232l.116.932c.464 0 .928-.117 1.393-.233-2.206 8.381-4.296 17.111-6.502 26.074-2.09 8.846-4.295 18.042-6.27 27.471-.58.116-1.044.233-1.625.349l.116.931c.465-.116.813-.116 1.278-.233-1.974 8.963-3.832 18.043-5.805 27.471L0 682l.696-.117c40.984-8.497 78.6-18.857 113.547-29.682v.233l1.045.116v-.582c9.985-3.143 19.737-6.169 29.258-9.312h.464v-.116c9.985-3.26 19.621-6.519 29.141-9.778h.581v-.233c9.52-3.259 18.925-6.519 28.096-9.778h.929v-.233c1.626-.582 3.251-1.164 4.877-1.629 41.564-14.55 80.109-27.937 117.03-36.783l1.045-.117v-.116a515.886 515.886 0 0130.766-6.286v.466h1.045v-.699a340.719 340.719 0 0130.07-3.492v.117h1.045v-.233c9.405-.582 18.693-.815 27.981-.349 13.584-.582 27.167 0 40.984 1.513v.116h.928c11.959 1.281 23.917 3.376 36.224 5.937h.348c13.584 2.91 27.4 6.402 41.448 10.476v.466l1.045.116v-.233c14.165 4.074 28.561 8.73 43.306 13.736v.465h1.045v-.116c14.28 4.772 28.793 9.894 43.77 15.016 2.554.931 5.225 1.862 7.895 2.677v.233h.697a3083.963 3083.963 0 0055.96 19.09v.815h1.045v-.466c21.015 6.868 43.19 13.735 66.41 20.254 0 .466.116.815.116 1.164l.929-.116c0-.233-.116-.582-.116-.815A1140.475 1140.475 0 00834.536 682l.697.116-.116-.698c-4.18-19.788-8.243-38.064-12.423-55.408zm5.225 26.889c-25.078-4.539-48.879-9.661-71.751-15.132a3047.839 3047.839 0 00-3.483-24.328c22.059 4.54 45.047 8.847 69.08 12.455 1.974 8.614 4.064 17.693 6.154 27.005zM100.312 340.942c0-1.048 0-2.096.116-3.027h17.88c0 1.048 0 2.096-.116 3.027.232 6.635.116 13.386-.233 20.137-5.921 0-11.958.117-17.879.117.348-6.752.464-13.503.232-20.254zm164.283-259.46c21.015 6.867 41.216 12.92 61.07 17.693a643.396 643.396 0 00-1.742 36.317 735.534 735.534 0 01-29.954-5.238c.232-12.688.697-25.725 1.625-38.995l-1.045-.116c-.928 13.27-1.393 26.19-1.625 38.878-9.869-1.862-19.737-3.958-29.838-6.053.116-13.619.581-27.82 1.509-42.487zm437.47 260.507c-.232 6.402-.116 12.688.116 19.09-14.861-.116-29.838-.116-44.699-.232a258.717 258.717 0 010-18.974c0-1.28 0-2.677-.116-3.958h44.583c0 1.397 0 2.678.116 4.074zm69.544 110.932c-17.879-.117-35.643-.35-53.174-.932-1.974-8.613-3.947-16.878-5.689-24.91 17.183.582 34.366 1.164 51.781 1.863a1032.608 1032.608 0 007.082 23.979zm-48.646 22.116a1304.615 1304.615 0 014.876 20.138c-17.647-1.048-35.062-2.328-52.245-3.725-1.161-6.984-2.322-13.852-3.599-20.604 16.718.932 33.553 1.863 50.62 2.561 0 .466.232 1.048.348 1.63zm-626.134-1.164c6.85-.233 13.584-.466 20.434-.815a1254.47 1254.47 0 00-4.876 21.535c-6.966.465-14.049.814-21.13 1.28 1.625-6.519 3.25-12.804 4.875-18.974.233-1.047.465-1.978.697-3.026zm22.291-132.931c0-1.048 0-2.096.117-3.027h17.879v3.027c.232 6.635.116 13.386-.232 20.021-5.921 0-11.958 0-17.88.116.233-6.635.349-13.386.116-20.137zm174.849-209.64a1634.516 1634.516 0 0029.954 5.238c-.232 11.64-.232 23.047-.116 34.455-9.753-.932-19.621-2.096-29.606-3.26-.232-11.989-.348-24.095-.232-36.433zm375.239 92.074c-15.441.814-30.767 1.629-45.86 2.56 1.393-10.243 2.787-20.719 4.064-31.661 15.673-1.397 31.463-2.91 47.485-4.19-1.741 10.243-3.483 20.137-5.108 29.915-.233 1.048-.465 2.212-.581 3.376zm-12.887 118.613c-.232 6.286-.116 12.572 0 18.974-14.281 0-28.445-.116-42.725-.116a504.666 504.666 0 010-18.741c0-1.281 0-2.677-.116-3.958h42.725c.116 1.164.116 2.445.116 3.841zm-518.392-1.047v-3.027h18.924c0 1.281 0 2.678-.116 3.958.233 6.286.116 12.571-.116 18.974-6.269 0-12.655 0-18.924.116.464-6.635.464-13.27.232-20.021zm474.738 1.047a252.398 252.398 0 000 18.741c-13.932 0-27.864-.116-41.68-.116-.117-6.286-.117-12.455.116-18.625 0-1.28 0-2.56-.116-3.957h41.68v3.957zm9.172 112.678c.58 3.957 1.045 8.031 1.625 12.105-5.805-.349-11.61-.814-17.415-1.164-9.288-.582-18.576-1.164-27.748-1.746-.465-5.703-1.045-11.407-1.625-16.994v-.117c7.082.349 14.28.699 21.478 1.164 7.547.349 15.209.815 22.872 1.164.348 1.746.581 3.725.813 5.588zm-123.416 70.074c0-5.006 0-10.011-.116-14.9 13.352 1.164 26.82 2.561 40.403 4.307.116 5.238.233 10.593.349 16.064-13.7-2.096-27.168-3.958-40.636-5.471zM157.782 341.989c0-1.28 0-2.677.116-3.957h20.899c0 1.28 0 2.677-.117 3.957.233 6.286.117 12.572 0 18.858-6.966 0-13.932 0-20.898.116.232-6.402.232-12.688 0-18.974zm32.044-116.169c1.626 11.058 3.251 21.767 4.644 32.127-7.314-.233-14.629-.349-21.943-.582a2780.967 2780.967 0 00-5.573-32.709c7.663.349 15.209.698 22.872 1.164zm380.232 116.169c-.116 6.17-.116 12.455-.116 18.625-12.539 0-25.194 0-37.733-.117-.116-6.169-.116-12.338.116-18.624v-3.841h37.733a22.54 22.54 0 000 3.957zm5.689 104.879c.464 5.587 1.045 11.174 1.509 16.878a40878.01 40878.01 0 01-40.055-2.444c-.348-5.588-.697-11.059-1.045-16.646 13.12.582 26.239 1.28 39.591 1.979v.233zM179.609 341.989c0-1.28 0-2.677.116-3.957h20.899c0 1.28 0 2.677-.117 3.957.233 6.286.233 12.572 0 18.858-6.966 0-13.932 0-20.898.116.232-6.402.232-12.688 0-18.974zm351.671 0c-.116 6.17-.116 12.339-.116 18.625h-37.733v-22.466h37.733c.116 1.164.116 2.561.116 3.841zm-329.844 0c0-1.28 0-2.677.116-3.957h21.827c0 1.513 0 3.026-.116 4.423.233 6.053.233 12.222.116 18.275-7.314 0-14.628 0-21.827.117.116-6.286.116-12.572-.116-18.858zm291.066-1.047a549.466 549.466 0 000 19.555h-33.553v-22.349h33.553v2.794zm2.438 95.449c.116 1.863.116 3.842.232 5.704-12.074-.349-24.033-.698-36.107-.931v-19.09c11.726 0 23.452.116 35.295.233.116 4.772.348 9.428.58 14.084zm-278.643 12.455c7.199-.349 14.397-.698 21.595-1.164 1.045 0 1.974-.116 3.019-.116 0 .582-.116 1.048-.116 1.63-.581 5.121-1.045 10.359-1.626 15.714-3.018.233-5.921.349-8.94.582-5.34.349-10.681.698-16.138 1.048.581-4.074 1.045-8.149 1.51-12.106.116-1.863.464-3.725.696-5.588zm8.011-106.391c0-1.513.116-3.026.116-4.423h22.872c0 1.28 0 2.677-.116 3.957.116 6.17.116 12.455.116 18.741-7.662 0-15.209 0-22.872.117.116-6.17.116-12.339-.116-18.392zm17.532 105.111c8.939-.466 17.763-.931 26.587-1.397-.465 5.588-1.045 11.291-1.51 16.995l-26.819 1.746c.581-5.238 1.045-10.476 1.625-15.598 0-.582 0-1.164.117-1.746zm6.269-105.577c0-1.28 0-2.677.116-3.957H274v2.91c.116 6.518.116 13.037.116 19.672-8.592 0-17.183 0-25.775.116 0-6.286 0-12.571-.232-18.741zm80.458 59.482c-9.404.116-18.692.116-28.096.233.348-6.402.58-12.805.812-19.207 9.288 0 18.577-.116 27.865-.116-.116 6.402-.349 12.688-.581 19.09zm1.626-19.09c9.404 0 18.808 0 28.212-.117v18.974c-9.636 0-19.273.116-28.909.233.348-6.402.58-12.688.697-19.09zm-1.742 20.137c-.232 6.286-.58 12.688-.929 19.09l-28.328.35c.348-6.402.812-12.805 1.161-19.207 9.404-.116 18.808-.233 28.096-.233zm1.045 0c9.636-.116 19.273-.116 28.909-.232v18.973c-9.868.117-19.853.117-29.722.233.232-6.286.581-12.688.813-18.974zm29.838-.232c9.869 0 19.621-.117 29.49-.117v18.974c-9.869 0-19.621.116-29.49.116v-18.973zm0-.932v-18.973h29.49v18.857c-9.753 0-19.621 0-29.49.116zm.116-20.021v-19.904h29.49v19.904h-29.49zm-1.045 0c-9.404 0-18.808 0-28.212.117.232-6.635.348-13.27.348-19.905h27.864v19.788zm-29.141.117c-9.288 0-18.576.116-27.865.116.233-6.635.349-13.386.465-20.021h27.864c-.116 6.635-.348 13.27-.464 19.905zm-28.909.116c-8.708 0-17.3.116-26.007.116a587.2 587.2 0 00.696-20.021h25.775c-.116 6.519-.232 13.154-.464 19.905zm0 .931c-.233 6.402-.465 12.805-.813 19.207l-26.355.349c.464-6.519.813-13.037 1.161-19.439 8.591 0 17.299 0 26.007-.117zm-.929 20.254c-.349 6.286-.697 12.688-1.161 19.207-8.94.116-17.88.232-26.82.465.581-6.518 1.045-12.92 1.51-19.323l26.471-.349zm-1.161 20.138c-.349 5.936-.697 11.873-1.161 17.926-.116 1.047-.116 1.979-.233 3.026-9.055.466-18.227.815-27.399 1.281 0-.35 0-.582.116-.932.58-6.984 1.277-13.968 1.857-20.836 8.94-.116 17.88-.349 26.82-.465zm-.116 18.042c.348-6.053.812-11.989 1.161-18.042 9.404-.117 18.924-.233 28.328-.349-.232 5.005-.464 10.127-.812 15.132-.116 1.63-.116 3.259-.233 4.889-9.52.349-19.04.815-28.56 1.164-.117-.931 0-1.863.116-2.794zm29.605-3.143c.233-5.121.581-10.243.813-15.248 9.985-.117 19.853-.233 29.838-.233 0 6.402 0 12.804-.116 19.323-10.217.232-20.434.582-30.767.931.116-1.63.116-3.143.232-4.773zm31.58-15.481c9.869-.117 19.737-.117 29.49-.117v18.974c-9.869.116-19.738.233-29.606.466.116-6.519.116-12.921.116-19.323zm30.535-.233h33.553v18.974h-5.457c-9.404-.117-18.808-.117-28.212 0 .116-6.286.116-12.572.116-18.974zm0-.931v-18.974h33.553v18.857c-11.146 0-22.408 0-33.553.117zm0-19.905v-18.857h33.553v18.857a1617.578 1617.578 0 00-33.553 0zm0-19.905v-19.904h33.553v19.788c-11.146.116-22.408.116-33.553.116zm0-20.836v-22.349h33.553v22.349h-33.553zm-1.045 0h-29.49v-22.349h29.49c.116 7.45 0 14.9 0 22.349zm-30.419 0h-27.864v-22.349h27.864v22.349zm-28.793 0h-27.864c.116-6.402.116-12.688 0-19.09v-3.375h27.748v3.375c.232 6.402.232 12.805.116 19.09zm-28.793 0h-25.775c.117-6.518.117-13.037-.116-19.555v-2.91h25.775v3.375c.232 6.402.232 12.805.116 19.09zM274 361.545a579.508 579.508 0 01-.697 20.021c-8.592 0-17.183.116-25.891.116.349-6.751.581-13.502.697-20.137a963.17 963.17 0 0025.891 0zm-.697 21.069c-.348 6.402-.697 12.92-1.161 19.439l-26.007.349c.581-6.635.929-13.153 1.277-19.672 8.592 0 17.183 0 25.891-.116zm-1.277 20.486c-.465 6.403-.929 12.805-1.509 19.323-8.708.117-17.416.349-26.239.466.58-6.519 1.161-13.037 1.741-19.439l26.007-.35zm-1.626 20.254c-.58 6.868-1.161 13.736-1.857 20.72 0 .349-.116.698-.116 1.048-8.824.465-17.648.931-26.587 1.396.812-7.682 1.509-15.248 2.322-22.698 8.823-.116 17.531-.349 26.238-.466zm-1.045 22.815c9.172-.465 18.344-.931 27.516-1.28-.348 5.471-.696 11.058-1.044 16.645-9.289.582-18.577 1.048-27.865 1.63.465-5.704.929-11.407 1.393-16.995zm28.445-1.397c9.637-.465 19.157-.814 28.677-1.164-.232 5.471-.58 10.826-.812 16.297-9.637.465-19.157.931-28.91 1.513.349-5.587.697-11.175 1.045-16.646zm29.722-1.28c10.333-.349 20.55-.698 30.767-.931 0 5.354 0 10.709-.116 16.063-10.449.349-21.014.699-31.58 1.164.349-5.354.581-10.825.929-16.296zm31.696-.931c9.868-.233 19.737-.466 29.606-.466v15.947c-9.869.117-19.738.349-29.606.582v-16.063zm30.651-.466c9.404-.116 18.808-.116 28.212 0h5.457v15.947h-5.457c-9.404-.116-18.808-.116-28.212 0a362.294 362.294 0 010-15.947zm34.598-.116c11.262 0 22.407 0 33.553.233v15.947c-11.262-.233-22.408-.233-33.669-.233.116-5.238.116-10.593.116-15.947zm0-.931v-18.974c11.145 0 22.407 0 33.553.116v18.974c-11.146-.116-22.408-.233-33.553-.116zm0-20.022v-18.857c11.145 0 22.407 0 33.553.117v18.973c-11.262-.116-22.408-.233-33.553-.233zm0-19.904v-18.858h33.553v18.974c-11.262 0-22.408 0-33.553-.116zm0-19.789v-19.788h33.553v19.905c-11.262-.117-22.408-.117-33.553-.117zm0-20.836v-22.349h33.553v22.349h-33.553zm0-23.397v-23.513h33.553V337.1h-33.553zm-1.045 0h-33.553v-23.513h33.553V337.1zm-34.482 0h-29.49v-23.513h29.49a794.384 794.384 0 000 23.513zm-30.535 0h-27.864c.116-7.915 0-15.714-.116-23.513h27.98V337.1zm-28.793 0h-27.748c.116-7.915 0-15.714-.116-23.629h27.864c0 7.915.116 15.714 0 23.629zm-28.793 0h-25.775c.117-7.915 0-15.714-.232-23.629 8.592 0 17.299 0 25.891.116.116 7.799.232 15.598.116 23.513zm-26.819 0h-25.775c.116-7.915 0-15.714-.232-23.746 8.591 0 17.299 0 25.89.117.233 7.799.233 15.714.117 23.629zm-26.82 0h-22.872c.116-7.915 0-15.83-.464-23.746 7.663 0 15.325 0 22.988.117.348 7.799.464 15.714.348 23.629zm0 24.561a594.01 594.01 0 01-.696 20.138c-7.663 0-15.326.116-22.988.116.464-6.751.812-13.502.928-20.254h22.756zm-.813 21.185a578.028 578.028 0 01-1.393 19.672l-23.336.35c.697-6.635 1.277-13.27 1.625-19.905 7.779-.116 15.442-.117 23.104-.117zm-1.393 20.604a575.486 575.486 0 01-1.741 19.439c-7.895.116-15.906.349-23.801.582.813-6.635 1.509-13.154 2.206-19.556 7.779-.233 15.557-.349 23.336-.465zm-1.857 20.486c-.697 7.45-1.51 15.133-2.322 22.699-1.045 0-2.09.116-3.135.116-7.082.349-14.281.699-21.363 1.164 1.045-7.915 1.974-15.714 2.903-23.513 8.127-.116 16.022-.349 23.917-.466zm-13.004 42.604c2.903-.233 5.921-.35 8.824-.582a5154.789 5154.789 0 00-1.742 18.391c-5.572.466-11.029.931-16.602 1.513-3.019.233-6.037.582-9.056.815.813-6.402 1.626-12.804 2.322-18.973 5.457-.466 10.914-.815 16.254-1.164zm9.869-.582c9.056-.582 17.996-1.164 26.819-1.746-.464 5.82-1.045 11.756-1.393 17.693-9.056.815-18.112 1.513-27.168 2.328a443.757 443.757 0 011.742-18.275zm27.864-1.863c9.404-.582 18.692-1.164 27.981-1.629-.349 5.703-.697 11.291-.929 16.994-9.404.699-18.925 1.513-28.445 2.328.348-5.936.813-11.756 1.393-17.693zm28.909-1.629c9.637-.582 19.273-1.048 28.91-1.514a15498.5 15498.5 0 00-.697 16.529c-9.636.582-19.389 1.281-29.141 1.979.232-5.703.58-11.407.928-16.994zm29.838-1.63c10.566-.466 21.131-.931 31.58-1.164 0 5.354 0 10.709-.116 16.063-10.681.466-21.479.932-32.276 1.63.348-5.471.58-11.058.812-16.529zm32.625-1.164c9.868-.349 19.737-.466 29.606-.582v15.947c-9.869.116-19.738.349-29.606.815-.116-5.471 0-10.826 0-16.18zm30.535-.699c9.404-.116 18.808-.116 28.212 0h5.457v15.948h-7.431a980.717 980.717 0 00-26.238 0v-15.948zm34.714 0c11.262-.116 22.407 0 33.669.233v16.064a811.092 811.092 0 00-33.669-.349v-15.948zm34.598.233c12.307.233 24.497.582 36.804 1.048.232 5.471.464 11.058.581 16.529-12.539-.698-24.962-1.164-37.385-1.513v-16.064zm0-1.047v-15.947c12.074.232 24.033.465 36.107.931.233 5.354.465 10.825.697 16.18-12.307-.582-24.613-.932-36.804-1.164zm-.116-37.016v-18.974c11.494 0 22.988.117 34.482.233.232 6.286.464 12.571.813 18.974-11.727-.117-23.569-.117-35.295-.233zm0-19.905v-18.974c11.262 0 22.64 0 33.901.117.116 6.286.349 12.688.581 19.09-11.494-.117-22.988-.233-34.482-.233zm0-19.905v-19.904h33.553c0 6.634.116 13.269.348 19.904h-33.901zm0-44.233v-23.513h33.669c-.116 7.799-.116 15.715-.116 23.513h-33.553zm0-24.444v-24.91c11.378 0 22.872-.116 34.25-.116-.233 8.381-.465 16.645-.581 25.026-11.262-.116-22.523 0-33.669 0zm-1.045 0h-33.553v-24.91h33.553v24.91zm-34.482 0h-33.553v-24.91h33.553v24.91zm-34.598 0h-29.49v-24.91c9.869 0 19.621 0 29.49.116v24.794zm-30.419-.116h-27.98a913.73 913.73 0 00-.697-25.027c9.52 0 19.041.117 28.677.117v24.91zm-28.909 0h-27.864c-.233-8.381-.465-16.762-.929-25.143 9.288 0 18.692.116 27.98.116.465 8.381.697 16.762.813 25.027zm-28.793 0c-8.592 0-17.183 0-25.891-.117-.232-8.381-.696-16.762-1.277-25.259 8.708.116 17.415.116 26.239.233.348 8.381.697 16.762.929 25.143zm-26.936-.117c-8.591 0-17.299 0-25.89-.116a960.134 960.134 0 00-1.393-25.376c8.707.117 17.415.117 26.122.233.465 8.497.929 16.878 1.161 25.259zm-26.819-.116c-7.663 0-15.325 0-22.988-.117-.348-8.497-1.045-16.994-1.858-25.608 7.779.116 15.558.116 23.337.233.696 8.614 1.161 17.111 1.509 25.492zm-23.917 0c-7.314 0-14.629 0-21.943-.117a499.442 499.442 0 00-2.09-25.724c7.431.116 14.745.116 22.175.232.813 8.614 1.394 17.111 1.858 25.609zm0 .931c.348 7.915.465 15.831.348 23.746h-21.827c.116-7.915 0-15.831-.464-23.862 7.314.116 14.629.116 21.943.116zm.348 48.54c-.116 6.751-.464 13.386-.928 20.254-7.315 0-14.745.116-22.06.116.465-6.868.929-13.619 1.045-20.254 7.315-.116 14.629-.116 21.943-.116zm-.928 21.185c-.465 6.518-1.045 13.153-1.626 19.905l-22.291.349c.812-6.751 1.393-13.503 1.973-20.138 7.199 0 14.513-.116 21.944-.116zm-1.858 20.836c-.697 6.402-1.393 12.921-2.206 19.555-7.547.233-15.093.35-22.64.582.929-6.634 1.742-13.269 2.555-19.788 7.43 0 14.861-.233 22.291-.349zm-2.322 20.603c-.929 7.683-1.974 15.482-2.903 23.513-7.662.349-15.441.815-23.22 1.164a1211.164 1211.164 0 003.483-24.095c7.547-.233 15.093-.349 22.64-.582zm-3.019 24.561a686.493 686.493 0 00-.696 5.471c-.581 4.074-1.045 8.148-1.626 12.338-7.895.466-15.673 1.048-23.684 1.514l1.393-9.429c.464-2.91.813-5.82 1.277-8.73 7.895-.349 15.674-.815 23.336-1.164zm-2.438 18.741c-.813 6.169-1.625 12.571-2.322 18.973-8.011.699-16.022 1.397-24.149 2.095.929-6.634 1.858-13.269 2.903-19.672 7.778-.349 15.673-.931 23.568-1.396zm-2.438 20.021a4422.546 4422.546 0 00-2.09 18.508c-8.127.931-16.37 1.862-24.729 2.793.812-6.518 1.741-12.92 2.554-19.206 8.127-.698 16.254-1.397 24.265-2.095zm.929-.117c3.135-.232 6.153-.582 9.288-.814 5.457-.466 11.03-.932 16.486-1.514-.58 5.82-1.045 11.757-1.509 17.693-7.082.815-14.28 1.63-21.479 2.445-1.625.233-3.251.349-4.876.582.697-6.169 1.393-12.339 2.09-18.392zm26.819-2.328c9.172-.814 18.228-1.629 27.168-2.328-.464 5.588-.813 11.291-1.161 16.995-9.056.931-18.228 1.979-27.516 3.026.464-6.052.929-11.873 1.509-17.693zm28.213-2.444c9.52-.815 19.04-1.63 28.445-2.328-.233 5.354-.581 10.825-.813 16.296-9.52.931-19.157 1.863-28.793 2.91.232-5.704.696-11.291 1.161-16.878zm29.373-2.445c9.753-.698 19.505-1.396 29.142-1.978-.232 5.238-.348 10.476-.581 15.714-9.752.815-19.505 1.63-29.373 2.561.232-5.471.464-10.826.812-16.297zm30.071-1.978c10.797-.699 21.595-1.164 32.276-1.63 0 5.005 0 10.127-.116 15.249-10.914.582-21.827 1.28-32.741 2.095.232-5.355.465-10.593.581-15.714zm33.321-1.746c9.868-.35 19.737-.699 29.606-.815v15.016c-9.869.116-19.738.465-29.722 1.047.116-5.121.116-10.127.116-15.248zm30.651-.699a989.17 989.17 0 0126.238 0h7.431v14.9c-2.438 0-4.993 0-7.431.116a989.17 989.17 0 00-26.238 0v-15.016zm34.714-.116c11.262 0 22.407.116 33.669.349v15.016c-11.262-.349-22.524-.582-33.669-.466v-14.899zm34.598.465c12.423.35 24.962.932 37.501 1.514.116 5.121.348 10.359.464 15.481-12.655-.931-25.31-1.63-37.849-1.979 0-5.005 0-10.01-.116-15.016zm38.429 1.514c13.236.698 26.472 1.629 39.823 2.677.232 5.354.581 10.825.813 16.296-13.468-1.28-26.82-2.444-40.171-3.376-.116-5.238-.232-10.359-.465-15.597zm0-.932c-.232-5.587-.348-11.058-.58-16.529 13.119.582 26.239 1.164 39.358 1.863.349 5.703.697 11.524 1.045 17.227-13.351-.931-26.587-1.862-39.823-2.561zm-.58-17.576c-.232-5.471-.464-10.826-.697-16.18 12.888.465 25.891.931 39.01 1.513.349 5.471.697 11.058 1.045 16.529-13.235-.698-26.355-1.28-39.358-1.862zm-.813-17.228c-.116-1.979-.116-3.841-.232-5.82-.232-4.656-.348-9.312-.58-13.852 12.771.117 25.658.233 38.545.466.348 6.053.813 12.106 1.161 18.275 0 .815.116 1.63.116 2.444-13.119-.582-26.006-1.047-39.01-1.513zm-.812-20.719c-.233-6.403-.581-12.688-.813-18.974l38.197.349c.348 6.286.697 12.688 1.161 19.09-13.003-.116-25.774-.233-38.545-.465zm-.813-19.905c-.232-6.402-.465-12.688-.581-19.09 12.655 0 25.194.116 37.849.116.233 6.402.465 12.805.813 19.207-12.771-.117-25.426-.233-38.081-.233zm-.697-20.138l-.348-19.904h37.733c.116 6.634.232 13.269.464 20.021-12.539 0-25.194 0-37.849-.117zm-.232-44.233c-.116-7.915 0-15.714.116-23.513 12.539 0 25.194 0 37.849-.116-.232 7.915-.232 15.714-.116 23.513-12.771.116-25.31.116-37.849.116zm0-24.56c.116-8.265.348-16.646.581-25.027 12.655 0 25.426-.116 38.081-.233-.465 8.381-.697 16.762-.929 25.143-12.539.117-25.078.117-37.733.117zm.697-25.958c.232-8.265.58-16.646.928-25.026 12.888-.117 25.659-.233 38.546-.466a974.86 974.86 0 00-1.393 25.259c-12.655.117-25.426.117-38.081.233zm-1.045 0c-11.378 0-22.872.116-34.25.116v-24.91c11.726 0 23.452-.116 35.179-.232-.233 8.38-.581 16.761-.929 25.026zm-35.179.116h-33.553v-24.793c11.145 0 22.407 0 33.553-.117v24.91zm-34.598 0h-33.553v-24.91h33.669c-.116 8.381-.116 16.646-.116 24.91zm-34.598 0c-9.869 0-19.621 0-29.49-.116 0-8.265 0-16.646-.116-24.91 9.868.116 19.737.116 29.49.116.116 8.381.116 16.646.116 24.91zm-30.419-.116c-9.52 0-19.157-.116-28.677-.116-.348-8.265-.696-16.646-1.161-25.143 9.985.116 19.853.233 29.722.233.116 8.497.116 16.761.116 25.026zm-29.722-.116c-9.288 0-18.692-.117-27.98-.117-.348-8.381-.929-16.762-1.393-25.375 9.404.116 18.924.232 28.328.349.349 8.497.813 16.878 1.045 25.143zm-29.025-.117c-8.708 0-17.415-.116-26.239-.233-.58-8.497-1.161-16.994-1.974-25.608 8.94.116 17.88.349 26.704.466.696 8.613 1.161 16.994 1.509 25.375zm-27.168-.233c-8.707-.116-17.415-.116-26.123-.232-.58-8.498-1.393-17.112-2.205-25.842 8.823.233 17.647.35 26.355.466.812 8.73 1.393 17.227 1.973 25.608zM245.439 286c-7.779-.116-15.558-.116-23.337-.233a1116.194 1116.194 0 00-2.786-26.19c8.011.232 16.022.349 23.917.582.812 8.613 1.509 17.227 2.206 25.841zm-24.382-.233c-7.43-.116-14.744-.116-22.175-.233-.929-8.73-2.09-17.46-3.251-26.539 7.547.232 15.093.349 22.64.582a1116.194 1116.194 0 012.786 26.19zm-23.104-.349c-7.082-.116-14.28-.116-21.362-.233-1.045-8.846-2.439-17.693-3.832-26.889 7.315.233 14.629.466 21.943.582 1.161 9.08 2.322 17.926 3.251 26.54zm0 1.048a499.442 499.442 0 012.09 25.724c-6.966 0-13.932 0-21.014-.116a510.357 510.357 0 00-2.438-25.841c7.198.116 14.28.116 21.362.233zm2.206 26.772c.465 8.032.581 15.947.465 23.862h-20.899c.116-7.915-.116-15.83-.58-23.862a634.51 634.51 0 0121.014 0zm.348 48.54a614.433 614.433 0 01-1.044 20.37c-7.083 0-14.049.116-21.131.116.581-6.867 1.045-13.619 1.277-20.37 6.966 0 13.932-.116 20.898-.116zm-1.161 21.301c-.58 6.635-1.161 13.387-1.973 20.138-7.199.116-14.281.233-21.479.465.929-6.867 1.625-13.619 2.322-20.37 7.082-.116 14.048-.116 21.13-.233zm-2.089 21.185c-.697 6.519-1.626 13.038-2.555 19.789-7.314.233-14.628.349-21.943.582 1.045-6.751 2.09-13.386 2.903-19.905 7.314-.233 14.396-.349 21.595-.466zm-2.671 20.72c-1.045 7.915-2.206 15.831-3.483 24.095-7.546.349-14.977.699-22.523 1.048a1215.707 1215.707 0 004.179-24.561c7.315-.116 14.513-.349 21.827-.582zm-3.599 25.143c-.464 2.794-.813 5.587-1.277 8.497a1902.44 1902.44 0 00-1.393 9.662c-7.663.465-15.442.931-23.104 1.396.348-1.978.696-4.074 1.045-6.052.696-4.191 1.509-8.381 2.206-12.455 7.546-.35 14.977-.699 22.523-1.048zm-2.902 19.206c-.929 6.402-1.974 13.037-2.903 19.672-7.895.699-15.79 1.397-23.801 1.979a3564.983 3564.983 0 013.483-20.254c7.895-.466 15.558-.931 23.221-1.397zm-2.903 20.603c-.929 6.286-1.741 12.688-2.554 19.207-8.127.931-16.254 1.862-24.497 2.677 1.044-6.751 2.205-13.386 3.25-19.905 7.895-.582 15.79-1.28 23.801-1.979zm-2.786 20.254c-.813 6.403-1.626 12.921-2.322 19.556-8.36 1.164-16.719 2.444-25.194 3.608 1.045-6.984 1.973-13.851 3.018-20.486 8.244-.815 16.371-1.746 24.498-2.678zm1.045-.116l24.729-2.794c-.696 6.17-1.277 12.339-1.857 18.741-8.36 1.281-16.719 2.445-25.194 3.725.696-6.751 1.509-13.27 2.322-19.672zm25.658-2.91c1.741-.233 3.367-.349 5.108-.582 7.199-.815 14.281-1.63 21.247-2.444-.464 5.82-.813 11.756-1.277 17.693-7.547 1.047-15.093 2.211-22.64 3.375-1.393.233-2.902.466-4.296.582.581-6.285 1.277-12.571 1.858-18.624zm27.4-3.259c9.172-1.048 18.344-2.096 27.516-3.027-.348 5.588-.697 11.175-.929 16.762-9.172 1.281-18.46 2.561-27.864 3.958.464-5.937.812-11.873 1.277-17.693zm28.561-3.143c9.636-1.048 19.273-2.095 28.909-2.91-.232 5.238-.464 10.592-.581 15.947a1446.204 1446.204 0 00-29.257 3.841c.232-5.704.58-11.291.929-16.878zm29.838-3.027c9.868-.931 19.621-1.862 29.373-2.56-.116 5.005-.232 10.01-.348 15.132-9.752 1.047-19.621 2.095-29.606 3.375.116-5.47.349-10.709.581-15.947zm30.302-2.677c11.03-.815 21.943-1.513 32.857-2.095 0 4.772 0 9.661-.116 14.434a791.649 791.649 0 00-33.089 2.793c.116-5.121.232-10.127.348-15.132zm33.786-2.212c9.984-.465 19.853-.814 29.722-1.047v14.085c-9.869.232-19.854.698-29.722 1.396v-14.434zm30.767-.931a989.16 989.16 0 0126.238 0c2.438 0 4.993 0 7.431-.116v13.968c-1.626 0-3.251 0-4.992.117-9.637-.233-19.157-.117-28.794.116.117-4.773.117-9.429.117-14.085zm34.714-.116c11.262-.117 22.407.116 33.669.465v13.969c-11.262-.466-22.524-.699-33.785-.582.116-4.54.116-9.196.116-13.852zm34.714.465c12.539.466 25.194 1.165 37.849 1.979.116 4.773.232 9.545.232 14.434-12.771-1.047-25.426-1.979-38.081-2.444v-13.969zm38.894 2.096c13.352.931 26.703 2.095 40.171 3.375.232 5.122.348 10.127.58 15.249a1250.91 1250.91 0 00-40.403-4.19c-.232-4.773-.232-9.545-.348-14.434zm41.1 3.492c13.7 1.28 27.4 2.793 41.332 4.307.348 5.471.696 10.941 1.045 16.529a2962.64 2962.64 0 00-41.797-5.588c-.232-5.005-.348-10.127-.58-15.248zm0-.931c-.232-5.471-.465-10.942-.813-16.297 13.468 1.048 27.052 2.212 40.752 3.376.464 5.704.928 11.524 1.277 17.344-13.816-1.63-27.632-3.143-41.216-4.423zm-.929-17.344c-.348-5.82-.697-11.524-1.045-17.344 13.236.698 26.587 1.513 40.171 2.444.581 6.053 1.045 12.106 1.626 18.275-13.7-1.164-27.284-2.328-40.752-3.375zm-2.09-35.852c0-.815-.116-1.746-.116-2.561-.348-6.169-.813-12.222-1.161-18.275 12.887.233 25.891.349 38.894.582.697 7.333 1.277 14.666 1.974 22.116-13.352-.698-26.588-1.28-39.591-1.862zm-1.393-21.884c-.348-6.402-.813-12.804-1.161-19.09 12.771.117 25.542.233 38.313.466.465 6.402 1.045 12.804 1.626 19.323-13.004-.233-25.891-.466-38.778-.699zm-1.161-20.021c-.348-6.402-.581-12.804-.813-19.206 12.655 0 25.31.116 37.965.232.349 6.519.697 12.921 1.277 19.556-12.887-.349-25.658-.466-38.429-.582zm-.929-20.254c-.232-6.635-.348-13.386-.464-20.021 12.539 0 25.194 0 37.733.116.116 6.635.348 13.387.696 20.021-12.655 0-25.31-.116-37.965-.116zm-.464-44.466c-.116-7.915 0-15.714.116-23.629 12.539 0 25.194 0 37.849-.117-.232 7.916-.348 15.831-.232 23.63-12.539.116-25.194.116-37.733.116zm.232-24.56c.232-8.381.464-16.762.929-25.143 12.771-.117 25.426-.117 38.197-.233-.58 8.497-1.045 16.878-1.277 25.259-12.655 0-25.31 0-37.849.117zm.929-26.191c.464-8.381.929-16.762 1.393-25.259 12.887-.233 25.891-.349 38.894-.582a1000.942 1000.942 0 00-2.09 25.725c-12.771 0-25.426.116-38.197.116zm1.509-26.307c.348-5.703.697-11.407 1.045-17.227.232-3.609.464-7.334.697-10.942 13.119-.698 26.471-1.397 39.822-2.212-.232 2.445-.464 5.006-.696 7.45a8113.357 8113.357 0 01-2.09 22.349c-12.887.233-25.891.466-38.778.582zm.116-17.344c-.348 5.82-.696 11.641-1.161 17.344-12.887.233-25.774.35-38.662.466.233-4.889.465-9.894.697-14.9.232-3.957.348-8.031.581-11.989a2270.088 2270.088 0 0039.242-1.746l-.697 10.825zm-40.055 2.91c-.232 5.006-.464 10.011-.696 14.9-11.727.116-23.453.233-35.295.233v-26.074a1891.9 1891.9 0 0036.34-1.048c0 4.074-.233 8.032-.349 11.989zm-36.92 15.133c-11.146 0-22.408.116-33.553.116v-25.958h5.573c9.404 0 18.692-.116 27.98-.232v26.074zm-34.598.116h-33.553v-25.958c8.707.117 17.415.117 26.238 0h7.431c-.116 8.731-.116 17.344-.116 25.958zm-34.598 0c-9.869 0-19.621-.116-29.49-.116 0-8.73 0-17.461-.116-26.307 9.868.233 19.737.465 29.606.465v25.958zm-30.535-.233c-9.869-.116-19.853-.116-29.838-.232-.232-5.006-.464-10.127-.813-15.249-.232-3.958-.348-7.916-.58-11.873 10.333.465 20.782.815 31.115 1.047.116 8.847.116 17.577.116 26.307zm-31.463-15.481c.232 5.122.58 10.127.812 15.249l-28.328-.35c-.349-5.936-.697-11.989-1.161-18.042l-.697-10.127c9.636.466 19.157.931 28.677 1.397l.697 11.873zm-29.722-3.027c.348 6.053.812 11.99 1.161 17.926-8.94-.116-17.88-.233-26.704-.465-.58-7.217-1.277-14.551-1.973-21.884l-.697-7.333c9.288.465 18.46 1.047 27.516 1.513.232 3.376.464 6.868.697 10.243zm-28.561-4.307c.696 7.334 1.277 14.551 1.857 21.768-8.823-.117-17.531-.35-26.355-.466-.812-8.148-1.625-16.296-2.438-24.561-.232-1.862-.348-3.841-.58-5.82 9.056.582 17.995 1.048 26.819 1.513.232 2.561.465 5.122.697 7.566zm-27.864-3.142c.812 8.264 1.625 16.412 2.438 24.444-8.011-.116-16.022-.349-24.033-.582-1.161-9.196-2.322-18.624-3.599-28.053-.117-1.047-.233-2.095-.465-3.143 5.805.35 11.494.699 17.299 1.048 2.554.116 5.109.349 7.663.466.232 1.862.464 3.841.697 5.82zm-26.123-4.074c1.277 9.545 2.438 18.857 3.599 27.936-7.547-.233-15.093-.349-22.64-.582-1.393-10.36-3.019-21.069-4.644-32.127 7.779.466 15.558.931 23.336 1.281 0 1.164.233 2.328.349 3.492zm-43.074 26.656c-7.198-.233-14.513-.466-21.827-.699-1.974-10.709-4.063-21.767-6.385-33.174l22.639 1.047c1.974 11.408 3.948 22.233 5.573 32.826zm.232 1.047a623.103 623.103 0 013.832 26.889c-7.082-.116-14.165-.233-21.247-.233-1.277-8.963-2.67-18.042-4.412-27.238 7.315.117 14.513.349 21.827.582zm3.948 27.937a502.418 502.418 0 012.438 25.957c-6.966 0-13.932-.116-21.014-.116-.581-8.614-1.626-17.227-2.787-26.074 7.198 0 14.281.116 21.363.233zm2.554 26.889c.464 8.031.697 15.947.581 23.862h-20.899a277.204 277.204 0 00-.696-23.979c6.966 0 14.048.117 21.014.117zm.348 48.772c-.232 6.751-.696 13.503-1.277 20.37-6.966.117-14.048.117-21.13.233.696-6.867 1.161-13.735 1.509-20.486 6.966-.117 13.932-.117 20.898-.117zm-1.393 21.418c-.58 6.751-1.393 13.503-2.322 20.37-7.082.117-14.28.35-21.363.466 1.045-6.984 1.858-13.852 2.555-20.719 7.082 0 14.164-.117 21.13-.117zm-2.438 21.418c-.929 6.519-1.858 13.154-2.903 19.905-7.198.233-14.512.465-21.827.698 1.161-6.867 2.322-13.502 3.251-20.137 7.315-.233 14.397-.349 21.479-.466zm-3.019 20.952c-1.277 8.032-2.67 16.18-4.179 24.561-7.431.35-14.861.582-22.408.932 1.626-8.498 3.251-16.762 4.644-24.794 7.431-.349 14.629-.466 21.943-.699zm-4.295 25.609l-2.09 12.222-1.045 6.286c-7.547.465-15.209.815-22.872 1.28.116-.815.348-1.513.464-2.328 1.161-5.587 2.206-11.058 3.251-16.529 7.315-.349 14.861-.698 22.292-.931zm-3.483 19.439a2419.803 2419.803 0 00-3.483 20.37c-7.779.582-15.674 1.281-23.453 1.863a3323.24 3323.24 0 014.18-20.952c7.546-.466 15.209-.815 22.756-1.281zm-3.716 21.302c-1.045 6.518-2.206 13.153-3.251 19.904-8.01.815-16.021 1.746-24.149 2.445 1.278-6.984 2.555-13.852 3.948-20.603a768.007 768.007 0 0023.452-1.746zm-3.367 20.952c-1.044 6.635-2.089 13.503-3.018 20.487-8.243 1.164-16.487 2.211-24.846 3.375 1.277-7.333 2.438-14.433 3.715-21.301 8.011-.815 16.138-1.63 24.149-2.561zm-3.25 21.534c-.929 6.635-1.858 13.387-2.671 20.254-8.475 1.397-16.951 2.91-25.658 4.307 1.045-7.217 2.206-14.317 3.367-21.301 8.475-.932 16.718-2.096 24.962-3.26zm1.044-.116c8.476-1.164 16.951-2.328 25.311-3.608-.697 6.285-1.394 12.687-1.974 19.322a5682.645 5682.645 0 01-26.007 4.54c.813-6.868 1.742-13.619 2.67-20.254zm26.239-3.725c8.476-1.28 16.951-2.444 25.31-3.725-.58 5.937-1.044 12.106-1.509 18.275-8.591 1.514-17.183 3.143-25.774 4.657.696-6.519 1.277-12.921 1.973-19.207zm26.355-3.841l4.528-.698c7.547-1.165 14.977-2.212 22.408-3.26-.348 5.704-.697 11.408-.929 17.228-9.056 1.629-18.228 3.259-27.516 5.005.464-6.286.929-12.339 1.509-18.275zm27.981-4.191c9.288-1.396 18.576-2.677 27.864-3.957-.232 5.354-.464 10.825-.58 16.296a6928.732 6928.732 0 01-28.213 4.889c.232-5.82.58-11.524.929-17.228zm28.793-4.074c9.868-1.396 19.505-2.677 29.257-3.841l-.348 15.365c-9.752 1.513-19.621 3.027-29.606 4.656.232-5.354.465-10.825.697-16.18zm30.302-3.957c9.869-1.164 19.737-2.328 29.606-3.376-.116 4.889-.116 9.778-.116 14.667-9.869 1.164-19.737 2.561-29.722 4.074 0-5.122.116-10.36.232-15.365zm30.535-3.492a791.655 791.655 0 0133.089-2.794c0 4.656 0 9.429-.116 14.201-11.03.815-22.06 1.979-33.205 3.259.116-4.889.116-9.778.232-14.666zm34.134-2.794a642.91 642.91 0 0129.722-1.397v13.968c-9.869.233-19.854.815-29.838 1.63 0-4.772 0-9.545.116-14.201zm30.767-1.397c9.636-.233 19.272-.233 28.793-.116 1.625 0 3.25 0 4.992-.117v13.852c-2.438 0-4.992 0-7.431.117-8.707-.233-17.531-.117-26.354.116v-13.852zm34.714-.233c11.262-.116 22.523.117 33.785.582v14.201c-11.262-.582-22.523-.931-33.785-.814v-13.969zm34.714.582c12.655.582 25.31 1.397 38.081 2.445.116 5.005.116 9.894.116 14.899a713.725 713.725 0 00-38.197-3.143V507.28zm80.574 6.984c13.816 1.63 27.748 3.609 41.797 5.588.348 5.703.58 11.524.696 17.46-14.164-2.444-28.328-4.772-42.261-6.868 0-5.587-.116-10.941-.232-16.18zm42.842 5.588a3458.895 3458.895 0 0142.725 6.286c1.741.232 3.483.465 5.224.814.581 6.286 1.161 12.688 1.626 19.207l-5.573-1.048c-14.513-2.677-28.909-5.238-43.19-7.799-.348-5.82-.58-11.64-.812-17.46zm42.841 5.354c-14.513-2.095-28.793-4.307-42.957-6.285-.349-5.588-.581-11.059-1.045-16.53 12.074 1.397 24.149 2.794 36.339 4.191 3.599.466 7.082.815 10.682 1.28.696 5.937 1.277 11.99 1.857 18.159-1.625-.349-3.251-.582-4.876-.815zm-7.43-19.672a17031.016 17031.016 0 01-36.572-4.19c-.349-5.82-.813-11.64-1.277-17.344 10.333.931 20.782 1.862 31.347 2.794 4.876.465 9.868.931 14.745 1.28.696 6.053 1.509 12.339 2.206 18.624-3.483-.349-6.966-.698-10.449-1.164zm-6.502-19.672c-10.565-.931-21.131-1.862-31.58-2.793-.464-6.17-1.045-12.223-1.625-18.275l27.516 1.746c5.805.349 11.726.814 17.647 1.164.813 6.402 1.626 12.804 2.554 19.439-4.76-.466-9.636-.931-14.512-1.281zm-13.236-39.111c-7.314-.349-14.512-.698-21.594-1.164-.697-7.45-1.394-14.783-1.974-22.116 14.396.233 28.793.582 43.306.931.928 7.683 1.973 15.482 3.018 23.513-7.663-.349-15.209-.698-22.756-1.164zm-23.684-24.211c-.581-6.519-1.045-12.921-1.626-19.323l42.609.698c.697 6.402 1.394 12.921 2.206 19.556-14.512-.349-28.909-.699-43.189-.931zm-1.742-20.254c-.464-6.519-.929-13.037-1.277-19.556 14.048.116 27.98.117 42.029.233a602.407 602.407 0 001.741 19.905c-14.164-.233-28.329-.466-42.493-.582zm-1.277-20.604a586.23 586.23 0 01-.697-20.137c13.933 0 27.865.116 41.681.116.116 6.752.464 13.503.929 20.254-13.816 0-27.865-.116-41.913-.233zm-.697-44.582c-.116-7.915 0-15.714.233-23.629 13.932 0 27.864-.117 41.796-.117a405.311 405.311 0 00-.348 23.746c-13.816-.116-27.748 0-41.681 0zm.349-24.677c.232-8.381.696-16.762 1.277-25.259l42.377-.349c-.813 8.614-1.51 17.111-1.858 25.608-13.932-.116-27.864 0-41.796 0zm1.393-26.307c.58-8.497 1.277-16.994 2.09-25.724 14.396-.233 28.793-.583 43.306-.932-1.162 8.963-2.09 17.577-2.903 26.191-14.28.233-28.445.349-42.493.465zm2.09-26.656c.696-7.333 1.393-14.783 2.09-22.233.232-2.56.464-5.005.696-7.566 7.431-.465 14.745-.814 22.292-1.28 7.43-.466 14.977-.931 22.407-1.28-.116.814-.232 1.629-.348 2.328a1874.496 1874.496 0 00-3.831 29.216c-14.513.233-28.91.466-43.306.815zm24.962-32.243c-7.431.466-14.745.931-22.06 1.28.929-9.894 1.858-19.788 2.671-29.915 10.681-.931 21.362-1.979 32.16-3.026 4.644-.466 9.288-.815 14.048-1.281-1.277 10.825-2.67 21.418-4.064 31.545a768.466 768.466 0 01-22.755 1.397zm-23.105 1.397c-13.351.815-26.703 1.513-39.822 2.211.58-9.428 1.161-18.973 1.741-28.635a2613.86 2613.86 0 0040.752-3.492c-.813 10.127-1.742 20.022-2.671 29.916zm-40.867 2.211c-13.12.699-26.239 1.281-39.242 1.746.348-9.195.812-18.391 1.044-27.587 13.236-.815 26.472-1.63 39.939-2.677-.58 9.545-1.161 19.09-1.741 28.518zm-40.287 1.863c-12.191.465-24.266.815-36.456 1.047 0-8.963 0-18.042.116-27.005 12.423-.349 24.846-.931 37.385-1.63-.233 9.196-.581 18.392-1.045 27.588zm-37.385 1.047c-11.146.233-22.408.35-33.553.233v-26.889c11.262 0 22.407-.116 33.669-.349 0 8.963-.116 18.042-.116 27.005zm-34.598.233h-7.431c-8.707.117-17.531.117-26.238 0v-26.889c4.411 0 8.707.117 13.119.117 4.412 0 8.708 0 13.119-.117h7.431v26.889zm-34.598 0c-9.869-.116-19.738-.233-29.606-.465 0-9.08-.116-18.043-.116-27.238 9.868.349 19.737.698 29.722.814v26.889zm-30.535-.582c-10.333-.233-20.782-.698-31.115-1.047-.464-9.196-.929-18.508-1.277-27.821 10.797.699 21.595 1.281 32.276 1.747 0 8.962 0 18.042.116 27.121zm-32.16-1.164a1180.73 1180.73 0 01-28.677-1.397c-.58-9.428-1.161-18.973-1.742-28.635 9.753.815 19.505 1.514 29.142 2.096.348 9.545.813 18.74 1.277 27.936zm-29.722-1.397c-9.172-.465-18.344-.931-27.516-1.513-.813-9.778-1.741-19.555-2.438-29.45 9.52.815 18.924 1.63 28.329 2.328.464 9.662 1.045 19.207 1.625 28.635zm-28.561-1.513c-8.94-.465-17.879-1.047-26.935-1.513-1.045-9.894-1.974-20.021-2.903-30.381 9.172.815 18.344 1.63 27.4 2.444a1161.95 1161.95 0 002.438 29.45zm-27.864-1.629c-2.554-.117-4.992-.35-7.547-.466l-17.415-1.048c-1.277-10.127-2.67-20.603-3.947-31.428 2.902.233 5.689.582 8.591.815 5.805.582 11.61 1.047 17.299 1.629.929 10.476 1.974 20.603 3.019 30.498zm-26.007-1.514l-23.336-1.397c-1.509-10.476-3.135-21.185-4.76-32.243 8.127.698 16.138 1.513 24.149 2.212 1.277 10.825 2.67 21.301 3.947 31.428zm-24.381-1.397c-7.547-.465-15.209-.814-22.872-1.28-.232-1.048-.348-2.212-.58-3.259a3039.618 3039.618 0 01-5.225-29.916c8.011.699 16.022 1.397 23.917 2.096 1.625 11.174 3.251 21.883 4.76 32.359zm-24.381-4.306c.232 1.047.348 1.978.58 3.026l-22.64-1.048c-.464-2.328-.928-4.772-1.393-7.1-1.741-8.73-3.483-17.693-5.34-27.005 7.894.582 15.789 1.28 23.568 1.862a2647.115 2647.115 0 005.225 30.265zm-24.498-5.006c.465 2.328.929 4.54 1.394 6.868-6.967-.349-13.933-.582-20.899-.815-.928-3.957-1.857-7.915-2.786-11.989a1427.987 1427.987 0 01-5.225-22.931c7.431.465 14.861 1.047 22.176 1.629 1.857 9.429 3.599 18.392 5.34 27.238zm1.626 7.916c2.322 11.407 4.412 22.465 6.385 33.174-6.617-.233-13.235-.465-19.969-.582-2.206-10.709-4.644-21.767-7.314-33.407 6.966.233 13.932.465 20.898.815zm6.501 34.222c1.626 9.312 3.135 18.391 4.412 27.354-6.385-.116-12.887-.232-19.273-.232-1.393-8.963-3.134-18.159-4.992-27.704 6.618.233 13.236.349 19.853.582zm4.528 28.286c1.161 8.846 2.206 17.576 2.787 26.074-6.27 0-12.655-.117-18.925-.117-.696-8.614-1.741-17.344-3.134-26.307 6.501.233 12.887.233 19.272.35zm2.903 27.121c.58 8.032.813 16.064.696 23.979h-18.924a279.47 279.47 0 00-.697-24.095c6.27 0 12.539.116 18.925.116zm.464 49.006c-.232 6.751-.812 13.619-1.509 20.486-6.386.117-12.771.117-19.273.233a321.94 321.94 0 001.742-20.603c6.385-.116 12.655-.116 19.04-.116zm-1.625 21.534c-.697 6.868-1.626 13.735-2.67 20.719-6.618.117-13.12.35-19.738.466 1.277-7.1 2.206-14.085 3.135-20.952 6.502-.117 12.887-.233 19.273-.233zm-2.787 21.651c-1.044 6.635-2.089 13.27-3.366 20.137-6.734.233-13.468.466-20.318.699a875.81 875.81 0 003.831-20.371c6.734-.232 13.352-.349 19.853-.465zm-3.483 21.185c-1.393 8.148-3.018 16.413-4.644 24.794-6.966.232-14.048.465-21.014.698 1.974-8.614 3.715-16.878 5.457-24.91 6.734-.233 13.468-.466 20.201-.582zm-4.876 25.841c-1.045 5.355-2.09 10.709-3.251 16.296-.116.815-.348 1.746-.464 2.561-7.198.35-14.397.699-21.711 1.048 1.509-6.519 3.019-12.921 4.412-19.206 6.966-.233 14.048-.466 21.014-.699zm-3.947 19.789a3323.24 3323.24 0 00-4.18 20.952c-7.43.582-14.977 1.047-22.524 1.513 1.626-7.45 3.367-14.55 4.877-21.534 7.43-.233 14.628-.582 21.827-.931zm-4.296 21.999c-1.277 6.752-2.554 13.62-3.947 20.604-7.663.815-15.442 1.513-23.337 2.211 1.626-7.333 3.135-14.434 4.644-21.301 7.663-.466 15.209-1.048 22.64-1.514zm-4.064 21.651c-1.277 6.984-2.554 14.085-3.715 21.302-8.011 1.047-16.022 1.979-24.149 2.91 1.509-7.566 3.019-15.016 4.644-22.116 7.663-.699 15.442-1.397 23.22-2.096zm-3.947 22.349c-1.161 6.868-2.322 13.969-3.367 21.302-8.243 1.281-16.602 2.677-25.078 3.841 1.393-7.566 2.787-15.015 4.296-22.232 8.011-.932 16.138-1.863 24.149-2.911zm-3.599 22.35c-1.045 6.867-1.974 13.968-3.019 21.301a5312.08 5312.08 0 01-26.006 4.889 2150.658 2150.658 0 013.83-22.233c8.592-1.396 16.952-2.677 25.195-3.957zm1.045-.233c8.591-1.397 17.183-2.794 25.658-4.307-.813 6.635-1.509 13.386-2.206 20.254-8.707 1.746-17.531 3.608-26.355 5.238.929-7.217 1.858-14.201 2.903-21.185zm26.703-4.423c8.708-1.514 17.415-3.027 26.007-4.54-.581 6.286-1.161 12.688-1.626 19.206a5198.177 5198.177 0 01-26.703 5.588c.813-6.985 1.509-13.619 2.322-20.254zm26.936-4.773c8.707-1.513 17.299-3.143 25.774-4.656a456.855 456.855 0 00-1.045 18.042c-8.707 1.863-17.531 3.842-26.355 5.704.581-6.402 1.045-12.804 1.626-19.09zm26.935-4.889c9.288-1.746 18.46-3.375 27.516-5.005-.232 5.587-.464 11.175-.58 16.995-9.172 1.978-18.577 3.957-28.097 6.053.348-6.053.697-12.106 1.161-18.043zm28.445-5.121a1190.368 1190.368 0 0128.212-4.889c-.116 5.238-.232 10.592-.232 15.947a1569.606 1569.606 0 00-28.561 5.936c.233-5.82.349-11.407.581-16.994zm29.257-5.122c9.869-1.63 19.738-3.259 29.606-4.773v14.9c-9.752 1.746-19.737 3.725-29.838 5.704 0-5.239.116-10.593.232-15.831zm30.535-4.773c9.985-1.513 19.853-2.793 29.722-4.074 0 4.656 0 9.313.116 13.969a690.888 690.888 0 00-29.838 4.888v-14.783zm30.767-4.19c11.146-1.281 22.175-2.445 33.089-3.376 0 4.424-.116 8.847-.116 13.386-10.914 1.048-21.827 2.329-32.973 3.958v-13.968zm34.134-3.376c9.984-.815 19.969-1.28 29.838-1.629v13.037c-9.985.349-19.854 1.047-29.955 1.978 0-4.539.117-8.962.117-13.386zm30.766-1.629c8.824-.233 17.648-.233 26.355-.117 2.438-.116 4.993-.116 7.431-.116v12.92c-2.322 0-4.644.117-6.966.117-8.94-.233-17.88-.233-26.82.116v-12.92zm34.831-.233c11.262-.117 22.523.233 33.785.815v13.037c-11.262-.699-22.523-1.048-33.785-.932v-12.92zm34.83.931a722.677 722.677 0 0138.197 3.143c0 4.54-.116 9.079-.116 13.619-12.771-1.63-25.426-2.91-37.965-3.725-.116-4.307-.116-8.73-.116-13.037zm39.126 3.259c13.468 1.514 27.052 3.26 40.636 5.355v14.666c-13.816-2.444-27.4-4.656-40.752-6.402 0-4.539.116-9.079.116-13.619zm41.681 5.471c13.932 2.095 28.096 4.423 42.26 6.868.233 5.354.349 10.709.349 16.18a1821.26 1821.26 0 00-42.609-8.381v-14.667zm43.189 7.101c14.165 2.444 28.561 5.121 42.958 7.682 1.973.349 3.831.699 5.805 1.048.464 5.936.812 11.873 1.161 18.042-1.393-.349-2.671-.582-4.064-.931-15.557-3.376-30.65-6.635-45.511-9.778 0-5.354-.117-10.709-.349-16.063zm49.808 8.963a8767.547 8767.547 0 0050.968 9.079c.813 6.519 1.509 13.27 2.206 20.138-17.647-3.609-34.946-7.334-52.013-11.059-.349-6.169-.697-12.222-1.161-18.158zm0-1.048c-.465-6.518-1.045-12.921-1.626-19.206 16.371 2.444 32.857 4.889 49.692 7.217a3362.68 3362.68 0 012.786 21.068c-17.183-2.91-34.134-6.052-50.852-9.079zm-1.742-20.254c-.58-6.169-1.161-12.222-1.857-18.159 16.021 1.863 32.16 3.725 48.53 5.471 1.045 6.519 1.974 13.154 3.018 19.905-16.834-2.328-33.321-4.772-49.691-7.217zm-1.974-19.206c-.696-6.286-1.393-12.572-2.205-18.625 15.673 1.397 31.463 2.794 47.369 4.074 1.045 6.519 2.206 13.154 3.251 20.022-16.255-1.746-32.393-3.609-48.415-5.471zm-2.322-19.556c-.812-6.635-1.625-13.037-2.554-19.439 15.326 1.048 30.767 1.979 46.325 2.91 1.161 6.751 2.322 13.619 3.599 20.603-15.906-1.28-31.696-2.677-47.37-4.074zm-2.554-20.487c-.58-4.19-1.045-8.264-1.625-12.222a691.468 691.468 0 00-.697-5.471c14.977.815 30.186 1.514 45.396 2.212.696 4.19 1.509 8.497 2.206 12.921.348 1.862.696 3.724.928 5.587-15.557-1.048-30.999-1.979-46.208-3.027zm-2.554-18.74c-1.045-8.032-2.09-15.831-3.019-23.514 14.745.35 29.49.699 44.351 1.164 1.277 8.032 2.67 16.18 4.064 24.561-15.21-.698-30.419-1.513-45.396-2.211zm-3.135-24.561c-.812-6.635-1.625-13.154-2.206-19.556 14.513.233 29.026.582 43.654.815.813 6.519 1.858 13.154 2.903 19.905-14.861-.466-29.722-.815-44.351-1.164zm-2.322-20.603a631.506 631.506 0 01-1.741-19.905l43.073.349c.581 6.751 1.393 13.503 2.322 20.487-14.629-.349-29.257-.582-43.654-.931zm-1.857-20.836c-.465-6.752-.813-13.503-.929-20.254 14.28 0 28.561.116 42.725.116.232 6.751.697 13.503 1.277 20.37-14.396-.116-28.793-.232-43.073-.232zm-1.045-45.048c-.116-7.915 0-15.831.348-23.746 14.28 0 28.561-.116 42.841-.116-.464 8.031-.696 15.947-.58 23.862h-42.609zm.464-24.677c.348-8.498 1.045-16.995 1.858-25.609 14.512-.116 28.909-.349 43.422-.465a510.373 510.373 0 00-2.439 25.841c-14.28.116-28.56.116-42.841.233zm1.974-26.656c.812-8.614 1.857-17.344 2.902-26.191 14.745-.349 29.49-.698 44.351-1.164-1.393 9.196-2.786 18.043-3.831 26.889-14.513.233-29.026.349-43.422.466zm3.018-27.122a1863.92 1863.92 0 013.832-29.1c.116-.815.232-1.746.348-2.561 15.093-.932 30.419-1.746 45.86-2.561a3311.825 3311.825 0 00-5.573 32.942c-14.977.465-29.722.931-44.467 1.28zm8.476-65.302c1.509-12.105 2.902-24.56 4.063-37.481 16.371-2.444 32.973-4.889 49.808-7.217-1.974 14.085-4.064 27.587-6.27 40.392-16.138 1.396-31.928 2.91-47.601 4.306zm-1.045.117c-4.76.466-9.52.931-14.281 1.28-10.797 1.048-21.478 1.979-32.043 2.91.928-11.407 1.741-22.931 2.322-34.687 13.7-1.979 27.516-3.958 41.564-6.053 2.09-.35 4.296-.582 6.385-.932-1.045 13.037-2.438 25.492-3.947 37.482zm-47.253 4.307c-13.7 1.28-27.284 2.444-40.752 3.492.581-10.709 1.045-21.535 1.277-32.593 13.816-1.629 27.748-3.608 41.797-5.587-.581 11.873-1.393 23.397-2.322 34.688zm-41.797 3.608c-13.351 1.048-26.703 1.979-39.939 2.677.349-10.243.581-20.603.697-30.962 13.352-1.164 26.936-2.678 40.519-4.307-.232 11.058-.696 21.883-1.277 32.592zm-40.867 2.794c-12.539.698-24.962 1.28-37.501 1.63 0-10.011 0-20.022.116-30.032 12.655-.582 25.31-1.397 38.081-2.561a1363.08 1363.08 0 01-.696 30.963zm-38.43 1.63a812.836 812.836 0 01-33.669.349v-29.799c11.262.116 22.407-.117 33.785-.582-.116 10.01-.116 20.021-.116 30.032zm-34.714.465h-7.431c-8.707.117-17.531.117-26.238 0v-29.915c4.992.116 10.1.233 15.093.233 4.063 0 8.127 0 12.19-.117 2.206 0 4.296.117 6.502.117-.116 9.777-.116 19.672-.116 29.682zm-34.598-.116c-9.869-.117-19.738-.466-29.722-.815 0-10.127-.116-20.254-.116-30.497 9.984.582 19.853 1.047 29.838 1.28a1295.907 1295.907 0 000 30.032zm-30.767-.815a1555.7 1555.7 0 01-32.392-1.746c-.465-10.36-.697-20.953-.929-31.545 11.029 1.048 22.059 1.979 33.089 2.677.232 10.244.232 20.487.232 30.614zm-33.205-34.222c-.232-11.291-.232-22.815.116-34.339a539.748 539.748 0 0032.857 4.191c.116 11.058.116 22 .232 32.825-11.146-.698-22.175-1.63-33.205-2.677zm-.929.815c.232 10.592.464 21.185.929 31.544-9.637-.582-19.389-1.28-29.142-2.095a1465.033 1465.033 0 01-1.393-32.825c9.869 1.397 19.737 2.444 29.606 3.376zm-29.257 29.449c-9.405-.698-18.925-1.513-28.329-2.328-.813-11.174-1.626-22.582-2.206-34.222a1256.405 1256.405 0 0029.257 3.841c.233 11.058.697 21.884 1.278 32.709zm-29.374-2.444c-9.056-.815-18.228-1.63-27.4-2.445a1458.249 1458.249 0 01-2.786-35.852c9.404 1.397 18.692 2.678 27.98 3.958.581 11.64 1.277 23.164 2.206 34.339zm-28.445-2.561c-5.689-.582-11.378-1.048-17.183-1.63-2.902-.232-5.805-.582-8.824-.815-1.393-11.989-2.786-24.444-3.831-37.481.929.116 1.858.233 2.787.466 8.127 1.164 16.254 2.444 24.265 3.608a1458.632 1458.632 0 002.786 35.852zm-26.935-2.561c-8.011-.698-16.022-1.513-24.149-2.212-1.742-12.455-3.483-25.375-4.993-38.994 8.476 1.28 16.835 2.444 25.194 3.725 1.161 13.037 2.554 25.492 3.948 37.481zm-25.194-2.212c-7.895-.698-15.906-1.396-23.917-2.095a1374.006 1374.006 0 01-6.27-40.508c8.476 1.164 16.951 2.328 25.31 3.609a1488.5 1488.5 0 004.877 38.994zm-24.846-2.211c-7.779-.699-15.674-1.281-23.569-1.863a2645.375 2645.375 0 01-7.662-42.021c8.359 1.048 16.718 2.212 24.962 3.376 1.857 14.085 4.063 27.587 6.269 40.508zm-24.73-1.979c-7.314-.582-14.744-1.048-22.175-1.63-3.018-13.502-6.153-27.936-9.288-43.418 8.011.932 16.022 1.863 23.801 2.91a2445.167 2445.167 0 007.662 42.138zm-23.22-1.746c-7.082-.466-14.048-.931-21.246-1.28-3.6-13.969-7.199-28.752-10.914-44.582 7.663.814 15.326 1.629 22.872 2.56 3.135 15.365 6.27 29.799 9.288 43.302zm.232 1.048c1.858 8.031 3.6 15.714 5.341 23.164.929 3.957 1.858 7.799 2.67 11.756-6.617-.233-13.351-.465-19.969-.698-1.277-5.122-2.67-10.36-4.064-15.715-1.625-6.402-3.367-13.037-5.108-19.788 7.082.349 14.164.815 21.13 1.281zm8.244 35.851c2.67 11.641 5.108 22.699 7.314 33.408l-19.157-.699c-2.438-10.709-5.224-21.767-8.243-33.407 6.734.233 13.468.466 20.086.698zm7.546 34.455a564.835 564.835 0 014.993 27.704c-6.154-.116-12.307-.233-18.461-.233a602.07 602.07 0 00-5.689-28.053c6.386.233 12.772.466 19.157.582zm5.225 28.752c1.393 8.963 2.438 17.693 3.134 26.307-6.037 0-11.958-.117-17.995-.117a367.478 367.478 0 00-3.483-26.423c6.037 0 12.19.116 18.344.233zm3.134 27.238a278.13 278.13 0 01.697 24.095h-17.88c.117-8.032-.232-16.063-.928-24.095h18.111zm.465 49.122a314.318 314.318 0 01-1.742 20.603c-6.037.116-12.074.116-18.228.232.929-6.984 1.626-13.851 1.974-20.719 6.037 0 11.959 0 17.996-.116zm-1.858 21.65a351.734 351.734 0 01-3.134 20.953c-6.154.116-12.423.349-18.577.465a367.763 367.763 0 003.483-21.301c6.038 0 12.075 0 18.228-.117zm-3.367 22a875.81 875.81 0 01-3.831 20.371l-19.157.698c1.626-6.984 3.019-13.852 4.412-20.487 6.27-.232 12.423-.465 18.576-.582zm-4.063 21.302c-1.626 8.032-3.483 16.296-5.457 24.91-6.502.233-13.119.349-19.737.466 2.09-8.498 4.179-16.762 6.037-24.794 6.502-.117 12.887-.349 19.157-.582zm-5.573 25.958c-1.393 6.285-2.903 12.571-4.412 19.206-6.734.233-13.584.582-20.318.815 1.742-6.635 3.367-13.154 4.993-19.439 6.617-.233 13.119-.35 19.737-.582zm-9.753 42.719c-1.509 6.868-3.134 13.968-4.644 21.302-7.314.582-14.628 1.28-21.943 1.862 1.858-7.566 3.716-14.783 5.457-21.883 7.082-.466 14.048-.815 21.13-1.281zm-4.876 22.233c-1.509 7.1-3.018 14.55-4.644 22.116-7.546.815-15.093 1.746-22.872 2.445 1.858-7.799 3.6-15.482 5.457-22.815a678.829 678.829 0 0022.059-1.746zm-4.876 23.164c-1.393 7.217-2.903 14.667-4.296 22.233-7.779 1.164-15.79 2.211-23.8 3.259 1.74-7.915 3.366-15.598 5.108-23.048a663.434 663.434 0 0022.988-2.444zm-4.412 23.28a2176.4 2176.4 0 00-3.831 22.35 5546.873 5546.873 0 01-24.73 4.19 898.996 898.996 0 014.76-23.164c8.011-1.048 16.022-2.212 23.801-3.376zm-3.947 23.397c-1.161 7.566-2.439 15.249-3.483 23.164-8.476 1.746-16.951 3.492-25.659 5.238 1.51-8.264 2.903-16.412 4.412-24.211a5409.68 5409.68 0 0024.73-4.191zm1.044-.233a858.35 858.35 0 0026.007-4.888c-.929 7.1-1.857 14.433-2.67 22-8.824 1.978-17.764 4.074-26.936 5.936 1.161-7.799 2.322-15.481 3.6-23.048zm26.936-5.005c8.94-1.746 17.647-3.492 26.355-5.238-.697 6.751-1.277 13.735-1.858 20.836-8.823 2.212-17.879 4.307-27.167 6.402.929-7.566 1.857-14.899 2.67-22zm27.516-5.471c8.94-1.862 17.88-3.725 26.703-5.587-.464 6.402-.812 12.921-1.161 19.556-8.939 2.328-18.112 4.539-27.4 6.867.465-7.217 1.161-14.084 1.858-20.836zm27.632-5.936c8.824-1.863 17.648-3.842 26.355-5.704-.232 5.937-.464 12.106-.697 18.275-8.823 2.328-17.763 4.54-26.935 6.868.464-6.519.813-13.037 1.277-19.439zm27.4-5.937c9.52-2.095 18.808-4.074 28.097-6.053-.117 5.588-.233 11.291-.233 16.995-8.939 2.328-18.111 4.656-27.4 7.1a14.45 14.45 0 01-1.161.35c.233-6.286.349-12.339.697-18.392zm29.025-6.286a1569.606 1569.606 0 0128.561-5.936c0 5.238 0 10.36.116 15.714-9.52 2.328-19.156 4.656-28.909 7.217.116-5.703.116-11.407.232-16.995zm29.606-6.169c10.101-1.979 19.97-3.958 29.838-5.704 0 4.773.116 9.662.232 14.551-9.868 2.095-19.853 4.423-29.954 6.867-.116-5.238-.116-10.476-.116-15.714zm30.767-5.82a1583.665 1583.665 0 0129.838-4.889c.116 4.423.116 8.963.348 13.503a756.599 756.599 0 00-29.954 5.936c-.116-5.005-.232-9.777-.232-14.55zm30.883-5.005c11.03-1.63 22.059-2.91 32.973-3.958 0 4.191-.116 8.381-.116 12.572-10.798 1.28-21.595 2.91-32.509 4.772-.232-4.54-.348-8.963-.348-13.386zm33.901-4.074c9.985-.932 19.97-1.63 29.955-1.979v12.106c-9.985.465-19.97 1.28-29.955 2.444v-12.571zm30.883-1.979c8.94-.349 17.88-.349 26.82-.117 2.322-.116 4.644-.116 6.966-.116v11.989c-1.858 0-3.599.117-5.457.117-9.52-.349-18.924-.233-28.445.233.116-4.074.116-8.148.116-12.106zm34.831-.233c11.262-.116 22.523.233 33.785.931v12.106a413.852 413.852 0 00-33.901-1.048c.116-4.074.116-8.031.116-11.989zm34.83 1.048c12.539.815 25.194 2.095 37.965 3.725-.116 4.19-.116 8.381-.348 12.687-12.655-1.862-25.194-3.375-37.617-4.307v-12.105zm38.894 3.841c13.468 1.746 27.052 3.958 40.868 6.402 0 4.54-.116 9.196-.233 13.852-13.816-2.91-27.399-5.471-40.867-7.566.116-4.307.232-8.498.232-12.688zm41.913 6.518a1714.966 1714.966 0 0142.609 8.381c.116 5.122.116 10.244 0 15.482-14.629-3.609-28.909-6.984-42.958-10.011.232-4.656.232-9.195.349-13.852zm43.654 8.614c14.745 3.027 29.722 6.402 45.279 9.662 1.393.349 2.903.582 4.296.931.348 5.82.58 11.64.696 17.693-1.044-.233-1.973-.466-3.018-.815-16.138-4.19-31.928-8.264-47.253-12.106v-15.365zm50.62 10.826c17.067 3.725 34.482 7.449 52.129 11.058.697 6.518 1.277 13.27 1.858 20.137-18.46-4.539-36.224-9.079-53.291-13.502-.232-5.937-.464-11.873-.696-17.693zm53.058 11.291c19.505 3.957 39.475 7.915 60.141 11.407 1.277 7.45 2.554 15.016 3.831 22.931-21.595-4.539-42.261-9.312-62.114-14.201-.581-6.751-1.161-13.502-1.858-20.137zm-.116-.932c-.697-6.867-1.393-13.619-2.206-20.137a1858.442 1858.442 0 0058.167 9.079 2726.871 2726.871 0 014.179 22.466c-20.666-3.609-40.635-7.45-60.14-11.408zm-2.322-21.301a5007.502 5007.502 0 00-2.787-21.185c18.344 2.56 37.037 5.005 56.077 7.1 1.626 7.45 3.135 15.249 4.761 23.164-19.854-2.677-39.127-5.82-58.051-9.079zm-2.903-22.117c-.928-6.751-1.973-13.386-3.018-19.904a3319.288 3319.288 0 0054.219 5.238 1652.8 1652.8 0 014.876 21.883c-19.156-2.211-37.849-4.656-56.077-7.217zm-3.134-20.952c-1.045-6.868-2.206-13.503-3.251-20.021 17.183 1.397 34.598 2.677 52.361 3.725 1.626 6.984 3.367 14.084 4.993 21.534a3281.787 3281.787 0 01-54.103-5.238zm-7.199-42.72c-.348-1.978-.696-3.957-1.045-5.82-.696-4.306-1.509-8.497-2.205-12.687 16.254.698 32.624 1.28 49.11 1.746 1.51 6.285 3.019 12.687 4.644 19.206-17.066-.582-33.901-1.513-50.504-2.445zm46.905-16.645c17.532.466 35.295.815 53.175.931v-.233a1242.437 1242.437 0 006.269 20.022c-18.46-.233-36.804-.815-54.8-1.514-1.625-6.518-3.134-12.92-4.644-19.206zm-1.277-1.048a3254.042 3254.042 0 01-48.995-1.746c-1.393-8.381-2.786-16.529-4.063-24.561 15.79.466 31.579.932 47.485 1.514 1.626 8.031 3.599 16.296 5.573 24.793zm-53.29-27.354c-1.045-6.751-1.974-13.386-2.903-19.905 15.326.349 30.767.699 46.325 1.048 1.161 6.635 2.554 13.386 4.063 20.254-15.906-.466-31.812-.932-47.485-1.397zm-3.019-20.836c-.929-6.868-1.625-13.736-2.322-20.487 15.093.116 30.186.233 45.28.466.812 6.867 1.973 13.968 3.25 21.068a3105.361 3105.361 0 00-46.208-1.047zm-2.322-21.535c-.58-6.867-1.045-13.619-1.277-20.37 14.977 0 29.838.117 44.815.233.348 6.868.929 13.735 1.742 20.603-15.21-.116-30.303-.233-45.28-.466zm-1.509-45.28c-.116-7.915.116-15.831.58-23.862 14.977-.117 29.954-.117 44.931-.233-.696 8.032-1.045 16.063-.928 24.095H657.25zm.696-24.91a529.122 529.122 0 012.438-25.958c15.326-.232 30.535-.349 45.86-.582-1.509 8.963-2.554 17.693-3.366 26.307-14.978.117-29.955.233-44.932.233zm2.555-26.889c1.044-8.846 2.322-17.693 3.831-26.889 15.79-.465 31.579-.931 47.485-1.513a576.297 576.297 0 00-5.34 27.704c-15.442.349-30.767.465-45.976.698zm3.947-27.936a2825.358 2825.358 0 015.573-32.942c16.37-.815 32.973-1.513 49.691-2.095-2.786 11.756-5.457 22.814-7.779 33.64-15.905.465-31.695 1.047-47.485 1.397zm5.689-33.99c.232-1.047.348-2.211.58-3.259a3108.541 3108.541 0 005.225-30.148c17.299-1.397 34.714-2.794 52.478-3.958a1350.168 1350.168 0 01-5.573 22.931c-1.045 4.191-1.974 8.265-2.903 12.223-16.718.698-33.321 1.396-49.807 2.211zm5.921-34.338a1375.04 1375.04 0 006.27-40.508c18.344-2.561 37.036-4.889 56.193-7.101-3.251 15.482-6.618 30.032-9.869 43.651-17.764 1.164-35.295 2.561-52.594 3.958zm6.502-41.556c2.09-15.249 4.063-31.196 5.689-48.19 19.505-4.19 39.822-8.381 60.837-12.223-3.251 18.974-6.618 36.783-10.217 53.429-19.273 2.095-37.965 4.54-56.309 6.984zm-1.045.116c-16.835 2.328-33.437 4.773-49.808 7.217 1.278-13.851 2.322-28.402 2.903-43.534 16.835-3.841 34.366-7.799 52.478-11.757-1.51 16.879-3.483 32.942-5.573 48.074zm-50.852 7.334c-2.206.349-4.412.698-6.618.931-13.932 2.095-27.748 4.074-41.332 6.053.696-12.688 1.045-25.725 1.161-39.228 15.441-3.375 31.115-6.984 47.369-10.709.813-.232 1.625-.349 2.438-.582a938.366 938.366 0 01-3.018 43.535zm-48.995 7.217a2763.884 2763.884 0 01-41.913 5.587c.349-11.757.349-23.746.232-35.968 14.049-2.677 28.213-5.588 42.726-8.73 0 13.386-.465 26.423-1.045 39.111zm-42.842 5.703c-13.583 1.63-27.051 3.143-40.519 4.307.116-11.058.116-22.232-.116-33.524a872.092 872.092 0 0040.752-6.634c.232 12.105.116 24.095-.117 35.851zm-41.564 4.307c-12.771 1.164-25.426 1.979-38.081 2.561 0-10.709.116-21.418.116-32.127a527.683 527.683 0 0037.849-3.841c.348 11.175.348 22.349.116 33.407zm-39.01 2.561c-11.262.466-22.523.699-33.785.582v-31.894h5.224c9.521 0 19.157-.349 28.677-.931-.116 10.942-.116 21.651-.116 32.243zm-34.83.699c-2.206 0-4.296 0-6.502-.117-9.056.233-18.228.117-27.284-.116 0-10.593 0-21.302-.116-32.011 5.573.233 11.146.349 16.719.349 3.831 0 7.779 0 11.61-.116 1.858 0 3.715.116 5.457.116.116 10.593.116 21.186.116 31.895zm-34.714-.233c-9.869-.233-19.854-.699-29.838-1.281-.117-10.825-.117-21.767-.233-32.825a431.186 431.186 0 0029.954 2.095c.117 10.709.117 21.418.117 32.011zm-29.955-35.154c-.116-11.174-.116-22.465-.232-33.873h-1.045c.116 11.291.233 22.582.233 33.757a839.238 839.238 0 01-32.741-4.191 644.546 644.546 0 011.742-36.2c21.014 5.005 41.564 8.497 61.881 9.894 0 10.941 0 21.883.117 32.825-9.985-.466-19.97-1.164-29.955-2.212zm-65.713-8.846c-.232 12.338-.116 24.444.232 36.317a1445.267 1445.267 0 01-29.257-3.841c-.581-12.571-.929-25.376-.929-38.646 10.217 2.329 20.086 4.307 29.954 6.17zm-29.954 32.476c-9.288-1.28-18.576-2.561-27.98-3.958a907.579 907.579 0 01-1.626-40.973 1878.998 1878.998 0 0028.677 6.285c0 13.154.349 26.075.929 38.646zm-29.025-4.191l-24.033-3.492c-1.045-.116-1.974-.349-3.019-.465-1.161-13.968-2.206-28.402-2.786-43.535.232 0 .464.117.696.117 9.405 2.095 18.577 4.307 27.632 6.286.117 14.201.697 27.936 1.51 41.089zm-28.097-4.074c-8.359-1.28-16.718-2.444-25.194-3.724a998.663 998.663 0 01-4.063-45.979c9.056 1.979 17.879 4.074 26.471 6.053.58 15.132 1.625 29.682 2.786 43.65zm-26.239-3.841c-8.359-1.164-16.834-2.444-25.31-3.608-2.09-15.249-4.063-31.429-5.689-48.424a3367.95 3367.95 0 0126.936 5.937 1018.811 1018.811 0 004.063 46.095zm-26.355-3.841c-8.243-1.164-16.602-2.212-24.961-3.376-2.671-15.947-5.109-32.825-7.315-50.751 9.056 1.862 17.88 3.725 26.704 5.587 1.509 17.111 3.483 33.291 5.572 48.54zm-26.006-3.376c-7.895-1.047-15.79-1.979-23.917-2.91-3.251-16.645-6.502-34.222-9.404-53.08 8.823 1.63 17.415 3.377 26.006 5.123 2.206 17.925 4.644 34.804 7.315 50.867zm-24.846-3.143c-7.547-.931-15.21-1.746-22.872-2.561-3.947-17.111-7.895-35.386-11.61-55.058 8.475 1.397 16.835 2.91 24.962 4.424 3.018 18.973 6.153 36.666 9.52 53.195zm-34.714-58.55c-3.948-21.069-7.663-43.65-11.03-68.095 9.404 2.444 18.692 5.005 27.748 7.566 2.322 23.164 5.109 44.815 8.243 64.952-8.127-1.513-16.486-3.026-24.961-4.423zm-1.045-.233C58.516 80.9 50.273 79.62 41.797 78.34c-4.76-21.884-9.52-45.514-13.7-71.122 9.404 2.212 18.692 4.54 27.748 6.868a1301.214 1301.214 0 0010.915 68.21zm.232 1.048c3.715 19.672 7.663 38.063 11.61 55.174-7.546-.814-15.093-1.513-22.756-2.211A1437.205 1437.205 0 0142.03 79.27c8.36 1.397 16.719 2.677 24.962 4.074zm11.842 56.222c3.716 15.947 7.315 30.73 10.914 44.699-6.966-.35-14.048-.815-21.13-1.048a2526.915 2526.915 0 01-12.54-45.863c7.663.699 15.21 1.397 22.756 2.212zm11.146 45.63a1232.432 1232.432 0 005.225 20.137c1.393 5.238 2.67 10.36 3.947 15.482-6.618-.233-13.236-.349-19.97-.466-1.74-6.286-3.599-12.688-5.572-19.439-1.51-5.471-3.135-11.058-4.76-16.878 7.082.465 14.164.815 21.13 1.164zm9.404 36.666c3.019 11.641 5.689 22.699 8.243 33.408l-19.156-.699c-2.67-10.476-5.69-21.534-8.94-33.174 6.618.116 13.236.233 19.853.465zm8.476 34.339c2.206 9.661 4.179 18.974 5.689 28.053-6.154-.116-12.307-.233-18.344-.349-1.742-9.196-3.948-18.625-6.386-28.519 6.27.466 12.655.699 19.041.815zm5.805 29.101c1.509 8.963 2.786 17.809 3.483 26.423-6.037 0-11.959-.117-17.996-.117-.813-8.73-2.206-17.576-3.947-26.656 6.269.233 12.422.233 18.46.35zm3.599 27.47c.696 8.149 1.045 16.18.929 24.096h-17.88a212.286 212.286 0 00-1.045-24.212c6.037.116 12.075.116 17.996.116zm.58 49.355c-.348 6.868-1.045 13.735-1.973 20.719-6.038.117-12.075.117-18.112.233 1.045-7.1 1.741-13.968 2.206-20.836 5.921 0 11.842-.116 17.879-.116zm-2.206 21.767a367.795 367.795 0 01-3.483 21.302c-6.153.116-12.422.349-18.576.465 1.51-7.333 2.903-14.55 3.948-21.534 6.037-.116 12.074-.233 18.111-.233zm-3.715 22.233c-1.277 6.751-2.786 13.503-4.412 20.603l-19.156.699c1.857-7.101 3.483-13.969 4.876-20.72 6.385-.233 12.539-.349 18.692-.582zm-4.528 21.534a942.326 942.326 0 01-6.037 24.678c-6.502.116-13.12.232-19.621.349 2.322-8.381 4.528-16.529 6.502-24.328l19.156-.699zm-6.269 25.725c-1.626 6.286-3.251 12.804-4.993 19.439-6.733.233-13.467.466-20.317.582 1.974-6.751 3.831-13.386 5.573-19.672 6.617 0 13.119-.116 19.737-.349zM95.9 473.873l-.696 2.794c-1.626 6.169-3.251 12.687-4.993 19.322-6.966.35-13.932.699-21.014 1.048 1.51-5.471 3.019-10.709 4.528-15.947.58-2.212 1.277-4.423 1.858-6.519 6.733-.232 13.583-.465 20.317-.698zm-5.92 23.048c-1.742 7.1-3.6 14.317-5.458 21.883-7.198.582-14.512 1.048-21.827 1.513 2.09-7.682 4.18-15.132 6.27-22.349 6.966-.349 13.932-.698 21.014-1.047zm-5.806 22.814c-1.858 7.334-3.6 15.016-5.457 22.815a717.386 717.386 0 01-22.756 2.095c2.09-8.031 4.18-15.947 6.27-23.396 7.43-.35 14.745-.932 21.943-1.514zm-5.689 23.863c-1.742 7.45-3.483 15.132-5.108 23.164-7.78 1.047-15.674 1.979-23.685 2.91 1.974-8.265 4.063-16.18 6.037-23.863 7.663-.698 15.326-1.396 22.756-2.211zm-5.34 24.211c-1.626 7.567-3.135 15.249-4.76 23.165-8.128 1.28-16.255 2.56-24.614 3.724 1.857-8.264 3.715-16.296 5.689-23.979 8.01-.931 15.906-1.862 23.684-2.91zm-4.993 24.212c-1.51 7.799-3.019 15.947-4.412 24.212-8.475 1.629-16.95 3.143-25.658 4.656 1.741-8.614 3.599-16.995 5.457-25.143 8.359-1.164 16.602-2.328 24.613-3.725zm-4.644 25.259c-1.393 7.916-2.67 16.064-4.064 24.445-8.707 1.979-17.647 3.957-26.703 5.704 1.626-8.731 3.367-17.228 4.992-25.493 8.824-1.396 17.416-3.026 25.775-4.656zm-4.064 25.492c-1.277 8.149-2.438 16.413-3.599 25.027-9.056 2.328-18.344 4.656-27.748 6.868 1.51-8.963 3.019-17.694 4.644-26.191 8.94-1.746 17.88-3.608 26.703-5.704zm.93-.232c9.055-2.096 17.995-4.191 26.703-6.402-.93 7.682-1.858 15.597-2.67 23.746-9.057 2.56-18.345 5.121-27.749 7.566 1.277-8.381 2.554-16.762 3.715-24.91zm.231-1.048c1.278-8.381 2.67-16.529 4.064-24.445a836.836 836.836 0 0025.775-5.238c-1.045 7.567-2.09 15.249-3.02 23.281-8.823 2.211-17.763 4.423-26.819 6.402zm30.767-29.799a3433.431 3433.431 0 0026.936-5.936 607.31 607.31 0 00-2.09 21.883c-9.056 2.445-18.344 4.889-27.864 7.217.928-7.915 1.973-15.598 3.018-23.164zm27.981-6.169c9.172-2.095 18.228-4.307 27.167-6.519a575.199 575.199 0 00-1.393 20.603c-9.172 2.561-18.46 5.238-27.864 7.799a583.008 583.008 0 012.09-21.883zm28.212-6.752c9.288-2.328 18.46-4.539 27.4-6.867a512.388 512.388 0 00-.696 19.206c-9.172 2.677-18.461 5.471-28.097 8.148.348-6.984.813-13.852 1.393-20.487zm28.329-7.1a2946.148 2946.148 0 0026.935-6.984c-.116 5.82-.232 11.756-.232 17.809-8.939 2.677-18.112 5.471-27.4 8.265.233-6.519.465-12.804.697-19.09zm27.98-7.217l1.394-.349c9.172-2.328 18.228-4.773 27.167-6.984 0 5.354.116 10.941.233 16.412-9.172 2.794-18.577 5.588-28.097 8.498-.232.116-.58.116-.813.233-.116-6.053 0-11.99.116-17.81zm29.49-7.566c9.753-2.445 19.389-4.889 28.909-7.217.116 5.005.233 10.01.465 15.132-9.637 2.677-19.273 5.587-29.258 8.498 0-5.588-.116-11.059-.116-16.413zm29.49 8.963c.232 4.889.464 9.894.813 14.899h.116c-9.753 3.143-19.621 6.519-29.606 10.011-.232-5.587-.348-11.058-.465-16.413 9.753-3.026 19.505-5.82 29.142-8.497zm.929-.349c10.217-2.794 20.201-5.588 30.07-8.032.232 4.539.464 8.963.813 13.619-9.869 2.91-19.854 6.053-30.071 9.312-.348-5.005-.58-9.894-.812-14.899zm0-.932c-.233-5.121-.349-10.127-.465-15.132 10.101-2.444 20.086-4.772 29.954-6.868.116 4.656.349 9.312.581 13.969a826.666 826.666 0 00-30.07 8.031zm30.418-22.232a754.825 754.825 0 0129.954-5.937c.116 4.307.349 8.614.581 13.037-9.869 1.979-19.854 4.307-29.954 6.868-.233-4.773-.349-9.429-.581-13.968zm30.999-6.053c10.914-1.863 21.711-3.492 32.509-4.773 0 4.074-.117 8.265-.117 12.339-10.449 1.397-21.13 3.259-31.811 5.354-.232-4.307-.465-8.613-.581-12.92zm33.437-4.889a438.896 438.896 0 0129.954-2.445v11.99c-9.984.465-19.969 1.513-30.07 2.793.116-4.19.116-8.264.116-12.338zm30.999-2.561c9.521-.466 18.925-.466 28.445-.233 1.858 0 3.599-.116 5.457-.116v11.873c-2.322 0-4.644.116-6.966.116-8.94-.349-17.996-.233-26.936.233v-11.873zm34.831-.349a413.835 413.835 0 0133.901 1.047v12.339a331.53 331.53 0 00-33.901-1.397v-11.989zm34.946 1.164c12.423.931 24.962 2.444 37.501 4.307-.116 4.423-.348 8.73-.581 13.153-12.422-2.212-24.729-4.074-36.92-5.122v-12.338zm38.546 4.539c13.468 2.096 27.051 4.656 40.867 7.567-.116 4.772-.348 9.661-.58 14.55-13.816-3.492-27.4-6.519-40.868-8.963.233-4.423.349-8.847.581-13.154zm41.796 7.683c14.049 3.026 28.329 6.402 42.958 10.01 0 5.355-.116 10.826-.349 16.413-14.744-4.307-29.025-8.264-43.189-11.756.232-4.889.464-9.778.58-14.667zm44.003 10.243a5715.837 5715.837 0 0147.021 11.99c1.045.233 2.206.582 3.25.815.233 6.169.233 12.455.349 18.857-1.974-.582-3.832-1.164-5.805-1.746-15.442-4.656-30.535-9.196-45.164-13.503.116-5.471.233-11.058.349-16.413zm51.316 13.154c17.067 4.423 34.831 8.963 53.291 13.502.58 6.985 1.045 14.085 1.509 21.418-18.924-5.354-37.036-10.825-54.451-16.063-.116-6.402-.233-12.688-.349-18.857zm54.336 13.735a1862.929 1862.929 0 0062.23 14.201 681.114 681.114 0 013.483 24.328c-22.407-5.471-43.77-11.174-64.32-16.994a593.307 593.307 0 00-1.393-21.535zm63.043 13.27c-1.277-7.799-2.438-15.481-3.832-22.931 21.247 3.608 43.306 6.984 66.41 9.778 2.09 8.264 4.296 16.762 6.386 25.608a1202.246 1202.246 0 01-68.964-12.455zm62.346-14.201c-23.104-2.794-45.047-6.169-66.294-9.778a2046.161 2046.161 0 00-4.179-22.465c20.433 2.91 41.332 5.471 63.275 7.566l.116-1.048a1379.96 1379.96 0 01-63.507-7.566 899.365 899.365 0 00-4.761-23.164c19.854 2.212 40.288 4.19 61.418 5.704a2549.096 2549.096 0 0113.932 50.751zm-14.396-51.799c-21.015-1.513-41.449-3.492-61.302-5.704a1652.8 1652.8 0 00-4.876-21.883 1507.256 1507.256 0 0058.399 3.841v-1.048c-19.97-.931-39.475-2.328-58.631-3.957-1.742-7.45-3.367-14.551-4.993-21.535 18.228 1.048 36.804 1.979 55.729 2.561v-1.047c-19.041-.582-37.617-1.397-55.961-2.561-1.625-6.984-3.367-13.852-4.876-20.371a30.547 30.547 0 01-.348-1.513c17.995.699 36.339 1.281 54.915 1.513 1.045 3.26 2.09 6.635 3.135 10.011 5.805 18.857 12.307 39.227 18.809 61.693zm-36.108-118.264c-17.415-.699-34.598-1.281-51.781-1.863-1.509-6.984-2.787-13.735-4.064-20.37 16.371.349 32.857.815 49.459 1.28v-1.047c-16.602-.466-33.204-.932-49.575-1.281-1.277-7.217-2.322-14.201-3.251-21.069 16.255.117 32.509.35 48.879.582v-1.047c-16.37-.233-32.741-.349-48.995-.582-.812-6.984-1.509-13.852-1.857-20.603 15.906.116 31.928.116 47.833.232v-1.047c-15.905-.117-31.927-.117-47.833-.233-.349-6.402-.349-12.804-.116-19.09 0-1.28-.116-2.677-.116-3.958h48.182c0 1.048 0 2.096.116 3.027-1.045 27.703 4.295 55.174 13.119 87.069zm-13.235-91.143h-48.182c-.117-8.032.232-15.947.928-24.096 16.138-.116 32.277-.116 48.415-.232-.813 8.264-1.278 16.296-1.161 24.328zm1.277-25.26c-16.138.117-32.277.233-48.415.233.697-8.614 1.858-17.344 3.367-26.307 16.487-.232 32.973-.465 49.459-.814-1.973 9.195-3.483 18.158-4.411 26.888zm-44.932-27.005c1.51-8.963 3.367-18.275 5.341-27.82 16.951-.582 34.018-1.164 51.201-1.862a471.635 471.635 0 00-7.082 28.867c-16.487.233-32.973.582-49.46.815zm74.189-87.418c-6.502 20.72-12.423 39.344-17.183 56.804-17.183.699-34.366 1.281-51.317 1.863 2.322-10.709 4.993-21.884 7.779-33.64 17.183-.582 34.482-.932 52.13-1.164V220c-17.416.116-34.715.582-51.782 1.048.929-3.958 1.858-7.916 2.903-11.99 1.858-7.45 3.715-15.248 5.573-23.28 18.46-1.164 37.152-2.095 56.309-2.677v-1.048c-19.041.582-37.733 1.513-55.961 2.677 3.251-13.619 6.618-28.169 9.869-43.767 19.737-2.212 39.939-4.191 60.837-5.587-6.85 22.698-13.352 43.068-19.157 61.809zm19.157-62.624c-20.898 1.513-41.216 3.492-60.953 5.587 3.483-16.645 6.966-34.455 10.217-53.428 21.478-3.958 43.654-7.567 66.758-10.593-5.341 21.069-10.681 40.392-16.022 58.434zm16.254-59.482c-23.104 3.027-45.279 6.635-66.758 10.593 3.483-20.487 6.618-42.487 9.288-66.116h-.465C782.755 12.92 807.601 6.75 833.84 1.28a1684.462 1684.462 0 01-16.835 73.8zm-190.29-12.804c39.823-13.852 83.245-28.984 131.659-42.603-2.67 23.63-5.805 45.63-9.288 66.116-21.131 3.842-41.332 8.032-60.953 12.223 1.625-18.043 3.018-37.133 3.715-57.62h-1.045c-.697 20.604-2.09 39.81-3.715 57.852-18.228 3.958-35.759 7.916-52.594 11.757a777.5 777.5 0 00.58-49.82h-1.045c.349 17.46.117 34.106-.58 50.053-.929.233-1.858.465-2.786.582-16.139 3.725-31.812 7.333-47.138 10.592 0-13.968-.232-28.402-1.161-43.418h-1.044a809.628 809.628 0 011.161 43.535c-14.513 3.143-28.794 6.169-42.842 8.73-.232-12.571-.696-25.376-1.625-38.53l-1.045.117c.929 13.154 1.393 25.958 1.625 38.529a901.234 901.234 0 01-40.867 6.635c-.233-11.64-.697-23.513-1.51-35.386 41.332-8.264 83.942-23.164 130.498-39.344zm-129.569 75.312c-12.771 1.746-25.31 3.027-37.849 3.842 0-11.059.116-22.117.116-33.291 11.959-1.281 23.917-3.376 36.108-5.821.929 11.873 1.393 23.63 1.625 35.27zm-90.094-27.703c3.483 0 6.966-.117 10.449-.233 13.584.582 27.167 0 40.983-1.513 0 11.174-.116 22.232-.116 33.291-11.261.698-22.523 1.047-33.901.931V110h-1.045v32.243c-1.858 0-3.715-.116-5.457-.116-9.404.233-18.924.233-28.329-.116 0-10.942 0-21.768-.116-32.709 5.921.465 11.727.582 17.532.582zM263.783 81.249h-.116c-.929 14.666-1.394 28.867-1.394 42.603-9.404-1.979-18.924-4.191-28.677-6.286-.232-14.55 0-29.566.697-45.164h-1.045c-.697 15.598-.813 30.497-.697 44.931a1778.41 1778.41 0 01-27.399-6.285c-.349-.117-.581-.117-.929-.233-.581-15.482-.697-31.545-.349-48.423h-1.045c-.348 16.761-.232 32.825.349 48.19-8.708-1.979-17.531-3.958-26.587-6.053-1.045-16.762-1.742-34.455-1.742-53.08h-1.045c.116 18.625.697 36.202 1.742 52.847a3394.564 3394.564 0 00-26.936-5.936c-1.625-17.81-2.902-36.667-3.599-56.92h-1.045c.697 20.137 1.974 38.877 3.599 56.57a3465.888 3465.888 0 00-26.703-5.587 1055.207 1055.207 0 01-5.689-60.994l-1.045.116a1056.147 1056.147 0 005.689 60.762c-8.591-1.746-17.183-3.492-26.007-5.122-3.134-20.137-6.037-41.788-8.359-64.952 44.931 12.92 85.335 27.005 122.719 40.042 19.273 6.635 37.617 13.037 55.613 18.974zM1.278 1.28c8.707 1.863 17.299 3.725 25.774 5.704a1504.876 1504.876 0 0013.7 71.122 713.657 713.657 0 00-22.756-3.143C12.307 52.381 6.618 27.937 1.278 1.28zm16.95 74.73c7.663 1.048 15.21 2.096 22.756 3.143A1436.74 1436.74 0 0054.8 136.19c-6.733-.582-13.583-1.164-20.433-1.629-5.341-18.042-10.798-37.482-16.138-58.55zm16.37 59.598c6.85.466 13.7 1.048 20.435 1.63 4.295 16.296 8.475 31.545 12.538 45.746-6.153-.233-12.422-.465-18.692-.698a1728.285 1728.285 0 01-14.28-46.678zm18.925 61.577c-1.393-4.54-2.902-9.079-4.295-13.852 6.269.233 12.538.466 18.692.699 1.625 5.82 3.25 11.64 4.876 17.111 1.858 6.518 3.715 12.92 5.457 19.09-5.805-.117-11.61-.233-17.531-.233-2.322-7.333-4.76-14.9-7.199-22.815zm24.962 24.095c3.25 11.641 6.27 22.699 8.94 33.175-5.457-.233-10.914-.349-16.37-.582v1.048c5.572.232 11.03.465 16.602.582 2.438 9.894 4.644 19.322 6.386 28.518-5.341-.116-10.682-.116-16.022-.233-4.064-19.206-9.985-39.693-17.183-62.624 6.037 0 11.842 0 17.647.116zm5.457 119.662c.58-18.392-1.51-36.667-5.573-56.222 5.34.116 10.681.116 16.022.232a321.627 321.627 0 013.947 26.656c-5.108 0-10.1 0-15.209-.116v1.048c5.109 0 10.217 0 15.325.116a212.286 212.286 0 011.045 24.212H84.174v1.047h15.325c0 1.048 0 2.096-.116 3.027a196.52 196.52 0 01-.348 20.254c-5.108 0-10.333 0-15.441.116.348-6.751.58-13.503.348-20.37zm14.977 21.301c-.465 6.868-1.161 13.852-2.206 20.836-5.225.117-10.45.117-15.79.117 1.161-7.101 1.974-14.085 2.554-20.953H98.92zm-18.112 22c5.225-.116 10.45-.116 15.79-.116-1.045 7.1-2.438 14.201-3.948 21.534-5.34.117-10.797.35-16.254.466 1.742-7.45 3.135-14.783 4.412-21.884zM53.523 484.815c9.172-29.217 17.183-54.476 22.64-77.64 5.457-.117 10.797-.35 16.254-.466-1.393 6.751-3.135 13.619-4.876 20.72-5.457.232-10.914.349-16.37.582v1.047c5.34-.233 10.681-.349 16.022-.582-1.974 7.799-4.18 15.947-6.502 24.328-5.457.117-11.03.117-16.486.117v1.047c5.456 0 10.797-.116 16.254-.116-1.742 6.402-3.6 12.92-5.573 19.672-5.805.116-11.726.233-17.647.349v1.048c5.805-.117 11.61-.233 17.299-.35-.58 2.096-1.161 4.074-1.742 6.286-1.51 5.238-3.019 10.709-4.644 16.18-6.153.233-12.423.466-18.692.698 1.393-4.423 2.67-8.73 4.063-12.92zm-4.412 13.852c6.27-.233 12.54-.466 18.693-.699-2.09 7.217-4.18 14.667-6.27 22.349-6.501.35-13.003.815-19.505 1.048 2.438-7.799 4.76-15.365 7.082-22.698zm12.191 22.698a1316.04 1316.04 0 00-6.27 23.513c-6.733.582-13.583 1.164-20.433 1.63 2.438-8.265 4.876-16.296 7.198-23.979 6.502-.349 13.003-.698 19.505-1.164zm-26.935 25.608v.466c6.85-.466 13.583-1.048 20.317-1.63-1.973 7.683-4.063 15.715-6.037 23.979-7.082.815-14.164 1.514-21.363 2.212 2.322-8.614 4.76-16.995 7.083-25.027zm-7.43 26.075c7.197-.699 14.396-1.514 21.478-2.212-1.858 7.799-3.831 15.831-5.69 24.095-7.314 1.048-14.86 1.979-22.407 2.91a1827.597 1827.597 0 016.618-24.793zm-6.85 25.841c7.546-.931 15.092-1.863 22.407-2.91-1.858 8.148-3.716 16.529-5.457 25.143-7.779 1.28-15.558 2.56-23.453 3.841 2.09-8.963 4.296-17.693 6.502-26.074zm-6.735 27.121a764.502 764.502 0 0023.569-3.841c-1.742 8.265-3.367 16.762-4.992 25.609-8.128 1.629-16.255 3.259-24.614 4.772 1.858-9.196 3.947-18.042 6.037-26.54zm-6.385 27.471c8.359-1.513 16.602-3.026 24.613-4.772-1.625 8.497-3.135 17.227-4.644 26.19a1225.765 1225.765 0 01-25.774 5.704c1.973-9.196 3.947-18.275 5.805-27.122zm78.6 6.17c.813-8.148 1.742-16.064 2.67-23.746 9.52-2.328 18.809-4.773 27.865-7.217a9250.575 9250.575 0 00-1.742 22.349c-9.404 3.026-18.924 5.82-28.793 8.614zm31.58-31.196c9.52-2.561 18.808-5.122 27.98-7.799-.348 6.868-.696 13.852-.929 20.952-9.404 3.027-18.924 6.17-28.677 9.196.349-7.682.929-15.132 1.626-22.349zm28.909-8.032c9.52-2.793 18.924-5.471 28.096-8.264-.116 6.402-.232 12.804-.348 19.439-9.404 3.259-18.924 6.402-28.793 9.661.348-7.1.697-14.085 1.045-20.836zm29.141-8.614c9.288-2.793 18.461-5.587 27.516-8.264 0 5.936 0 11.873.233 17.926-9.172 3.143-18.46 6.402-27.981 9.661-.116-6.402 0-12.92.232-19.323zm33.089 7.916c-1.509.465-3.018 1.047-4.528 1.629-.116-6.052-.232-12.105-.232-17.925.348-.117.813-.233 1.161-.35a4163.452 4163.452 0 0027.864-8.381c.117 5.471.233 10.942.465 16.413-8.011 2.794-16.254 5.587-24.73 8.614zm87.308-28.868c-.348-4.54-.58-9.079-.812-13.503 10.1-2.56 20.085-4.772 29.954-6.867.232 4.074.464 8.264.812 12.338a549.164 549.164 0 00-29.954 8.032zm30.999-8.264c-.348-4.075-.58-8.265-.812-12.339 10.681-2.212 21.246-3.958 31.695-5.355 0 3.842-.116 7.683-.116 11.524-10.101 1.513-20.317 3.725-30.767 6.17zm31.928-6.403c0-3.841.116-7.682.116-11.407a331.967 331.967 0 0130.071-2.794v10.826c-10.101.582-20.086 1.746-30.187 3.375zm30.999-3.608v-10.825c9.056-.466 17.996-.583 26.936-.233 2.322-.117 4.644-.117 6.966-.117V572c-1.974 0-3.948.116-5.921.116-9.288-.232-18.577-.116-27.981.466zm38.546-.582h-3.483v-10.593c11.262-.116 22.524.466 33.901 1.514v10.825A268.005 268.005 0 00428.066 572zm31.347 1.862v-10.825c12.191 1.164 24.498 2.91 36.92 5.122l-.696 11.523c-12.191-2.56-24.265-4.539-36.224-5.82zm37.153 6.053l.696-11.524c13.468 2.445 27.052 5.471 40.868 8.963-.232 4.307-.465 8.614-.813 12.921-13.7-4.074-27.284-7.566-40.751-10.36zm41.796 10.593c.348-4.423.581-8.73.813-13.037 14.164 3.492 28.445 7.566 43.189 11.756-.116 4.889-.348 9.895-.58 14.9-14.861-4.889-29.258-9.545-43.422-13.619zm88.353 29.217c-15.093-5.238-29.722-10.36-44.002-15.132.232-5.006.464-10.011.58-14.9 14.629 4.191 29.606 8.73 44.931 13.386 1.974.582 4.064 1.281 6.038 1.863 0 5.703 0 11.524-.116 17.46-2.439-.931-4.877-1.862-7.431-2.677zm8.475 2.91c.117-5.937.117-11.757.117-17.577 17.415 5.238 35.643 10.709 54.567 16.064.348 6.635.697 13.502.929 20.37-19.273-6.286-37.733-12.688-55.613-18.857zm56.658 19.323c-.232-6.985-.581-13.736-.929-20.487 20.55 5.82 41.913 11.64 64.32 16.995 1.045 7.682 1.974 15.597 2.903 23.629-23.104-6.402-45.164-13.27-66.294-20.137zm67.339 20.486c-.929-8.148-1.858-15.947-2.903-23.746 22.872 5.471 46.789 10.709 71.867 15.133 1.857 8.73 3.831 17.576 5.689 26.772-26.239-5.354-51.085-11.64-74.653-18.159z" fill="#fff" fill-opacity=".3"/></g><defs><clipPath id="clip0"><path fill="#fff" d="M0 0h835v682H0z"/></clipPath></defs></svg>